{
	"asset":{
		"generator":"Khronos glTF Blender I/O v3.5.30",
		"version":"2.0"
	},
	"scene":0,
	"scenes":[
		{
			"name":"Scene",
			"nodes":[
				9
			]
		}
	],
	"nodes":[
		{
			"name":"Eye",
			"rotation":[
				-2.6692537957728746e-08,
				-2.6692537957728746e-08,
				-0.7071067690849304,
				0.7071067690849304
			],
			"translation":[
				0.19589920341968536,
				0.35319745540618896,
				8.971647424971252e-09
			]
		},
		{
			"children":[
				0
			],
			"name":"Head",
			"translation":[
				0,
				1.0678555965423584,
				0
			]
		},
		{
			"name":"Arm.L",
			"rotation":[
				2.3090441914064286e-07,
				1.1287914958302281e-07,
				-0.5873590111732483,
				0.8093265295028687
			],
			"translation":[
				0.311959832906723,
				0.8468809127807617,
				-0.20026591420173645
			]
		},
		{
			"name":"Arm.R",
			"rotation":[
				2.3090441914064286e-07,
				1.1287914958302281e-07,
				-0.5873590111732483,
				0.8093265295028687
			],
			"translation":[
				0.311959832906723,
				0.8468809127807617,
				0.2028178572654724
			]
		},
		{
			"children":[
				1,
				2,
				3
			],
			"name":"Base"
		},
		{
			"name":"neutral_bone",
			"rotation":[
				-0.7071067690849304,
				0,
				0,
				0.7071067690849304
			]
		},
		{
			"mesh":0,
			"name":"Dalek",
			"skin":0
		},
		{
			"mesh":1,
			"name":"DalekBeakHead",
			"skin":0
		},
		{
			"mesh":2,
			"name":"DalekBreak",
			"skin":0
		},
		{
			"children":[
				6,
				7,
				8,
				4,
				5
			],
			"name":"Armature"
		}
	],
	"animations":[
		{
			"channels":[
				{
					"sampler":0,
					"target":{
						"node":4,
						"path":"translation"
					}
				},
				{
					"sampler":1,
					"target":{
						"node":4,
						"path":"rotation"
					}
				},
				{
					"sampler":2,
					"target":{
						"node":4,
						"path":"scale"
					}
				},
				{
					"sampler":3,
					"target":{
						"node":1,
						"path":"translation"
					}
				},
				{
					"sampler":4,
					"target":{
						"node":1,
						"path":"rotation"
					}
				},
				{
					"sampler":5,
					"target":{
						"node":1,
						"path":"scale"
					}
				},
				{
					"sampler":6,
					"target":{
						"node":0,
						"path":"translation"
					}
				},
				{
					"sampler":7,
					"target":{
						"node":0,
						"path":"rotation"
					}
				},
				{
					"sampler":8,
					"target":{
						"node":0,
						"path":"scale"
					}
				},
				{
					"sampler":9,
					"target":{
						"node":2,
						"path":"translation"
					}
				},
				{
					"sampler":10,
					"target":{
						"node":2,
						"path":"rotation"
					}
				},
				{
					"sampler":11,
					"target":{
						"node":2,
						"path":"scale"
					}
				},
				{
					"sampler":12,
					"target":{
						"node":3,
						"path":"translation"
					}
				},
				{
					"sampler":13,
					"target":{
						"node":3,
						"path":"rotation"
					}
				},
				{
					"sampler":14,
					"target":{
						"node":3,
						"path":"scale"
					}
				}
			],
			"name":"ArmatureAction",
			"samplers":[
				{
					"input":19,
					"interpolation":"LINEAR",
					"output":20
				},
				{
					"input":19,
					"interpolation":"LINEAR",
					"output":21
				},
				{
					"input":19,
					"interpolation":"LINEAR",
					"output":22
				},
				{
					"input":19,
					"interpolation":"LINEAR",
					"output":23
				},
				{
					"input":19,
					"interpolation":"LINEAR",
					"output":24
				},
				{
					"input":19,
					"interpolation":"LINEAR",
					"output":25
				},
				{
					"input":19,
					"interpolation":"LINEAR",
					"output":26
				},
				{
					"input":19,
					"interpolation":"LINEAR",
					"output":27
				},
				{
					"input":19,
					"interpolation":"LINEAR",
					"output":28
				},
				{
					"input":19,
					"interpolation":"LINEAR",
					"output":29
				},
				{
					"input":19,
					"interpolation":"LINEAR",
					"output":30
				},
				{
					"input":19,
					"interpolation":"LINEAR",
					"output":31
				},
				{
					"input":19,
					"interpolation":"LINEAR",
					"output":32
				},
				{
					"input":19,
					"interpolation":"LINEAR",
					"output":33
				},
				{
					"input":19,
					"interpolation":"LINEAR",
					"output":34
				}
			]
		}
	],
	"materials":[
		{
			"doubleSided":true,
			"emissiveFactor":[
				1,
				1,
				1
			],
			"emissiveTexture":{
				"index":0
			},
			"name":"TestMaterial",
			"pbrMetallicRoughness":{
				"baseColorTexture":{
					"index":1
				},
				"metallicFactor":0,
				"roughnessFactor":0.5
			}
		}
	],
	"meshes":[
		{
			"name":"Cylinder",
			"primitives":[
				{
					"attributes":{
						"POSITION":0,
						"TEXCOORD_0":1,
						"NORMAL":2,
						"JOINTS_0":3,
						"WEIGHTS_0":4
					},
					"indices":5,
					"material":0
				}
			]
		},
		{
			"name":"Cylinder.002",
			"primitives":[
				{
					"attributes":{
						"POSITION":7,
						"TEXCOORD_0":8,
						"NORMAL":9,
						"JOINTS_0":10,
						"WEIGHTS_0":11
					},
					"indices":12,
					"material":0
				}
			]
		},
		{
			"name":"Cylinder.001",
			"primitives":[
				{
					"attributes":{
						"POSITION":13,
						"TEXCOORD_0":14,
						"NORMAL":15,
						"JOINTS_0":16,
						"WEIGHTS_0":17
					},
					"indices":18,
					"material":0
				}
			]
		}
	],
	"textures":[
		{
			"sampler":0,
			"source":0
		},
		{
			"sampler":0,
			"source":1
		}
	],
	"images":[
		{
			"bufferView":6,
			"mimeType":"image/png",
			"name":"DalekLight"
		},
		{
			"bufferView":7,
			"mimeType":"image/png",
			"name":"DalekColor"
		}
	],
	"skins":[
		{
			"inverseBindMatrices":6,
			"joints":[
				4,
				1,
				0,
				2,
				3,
				5
			],
			"name":"Armature"
		}
	],
	"accessors":[
		{
			"bufferView":0,
			"componentType":5126,
			"count":3618,
			"max":[
				0.8309764266014099,
				1.5340913534164429,
				0.37517115473747253
			],
			"min":[
				-0.32679665088653564,
				0.0005302336066961288,
				-0.37517115473747253
			],
			"type":"VEC3"
		},
		{
			"bufferView":1,
			"componentType":5126,
			"count":3618,
			"type":"VEC2"
		},
		{
			"bufferView":2,
			"componentType":5126,
			"count":3618,
			"type":"VEC3"
		},
		{
			"bufferView":3,
			"componentType":5121,
			"count":3618,
			"type":"VEC4"
		},
		{
			"bufferView":4,
			"componentType":5126,
			"count":3618,
			"type":"VEC4"
		},
		{
			"bufferView":5,
			"componentType":5123,
			"count":4500,
			"type":"SCALAR"
		},
		{
			"bufferView":8,
			"componentType":5126,
			"count":6,
			"type":"MAT4"
		},
		{
			"bufferView":9,
			"componentType":5126,
			"count":453,
			"max":[
				0.4972848892211914,
				1.5340913534164429,
				0.2586486339569092
			],
			"min":[
				-0.25864866375923157,
				1.283607006072998,
				-0.2586486339569092
			],
			"type":"VEC3"
		},
		{
			"bufferView":10,
			"componentType":5126,
			"count":453,
			"type":"VEC2"
		},
		{
			"bufferView":11,
			"componentType":5126,
			"count":453,
			"type":"VEC3"
		},
		{
			"bufferView":12,
			"componentType":5121,
			"count":453,
			"type":"VEC4"
		},
		{
			"bufferView":13,
			"componentType":5126,
			"count":453,
			"type":"VEC4"
		},
		{
			"bufferView":14,
			"componentType":5123,
			"count":723,
			"type":"SCALAR"
		},
		{
			"bufferView":15,
			"componentType":5126,
			"count":2396,
			"max":[
				0.8309764266014099,
				1.06490159034729,
				0.37517115473747253
			],
			"min":[
				-0.32679665088653564,
				-0.04534926265478134,
				-0.4286801517009735
			],
			"type":"VEC3"
		},
		{
			"bufferView":16,
			"componentType":5126,
			"count":2396,
			"type":"VEC2"
		},
		{
			"bufferView":17,
			"componentType":5126,
			"count":2396,
			"type":"VEC3"
		},
		{
			"bufferView":18,
			"componentType":5121,
			"count":2396,
			"type":"VEC4"
		},
		{
			"bufferView":19,
			"componentType":5126,
			"count":2396,
			"type":"VEC4"
		},
		{
			"bufferView":20,
			"componentType":5123,
			"count":2730,
			"type":"SCALAR"
		},
		{
			"bufferView":21,
			"componentType":5126,
			"count":81,
			"max":[
				3.3333333333333335
			],
			"min":[
				0
			],
			"type":"SCALAR"
		},
		{
			"bufferView":22,
			"componentType":5126,
			"count":81,
			"type":"VEC3"
		},
		{
			"bufferView":23,
			"componentType":5126,
			"count":81,
			"type":"VEC4"
		},
		{
			"bufferView":24,
			"componentType":5126,
			"count":81,
			"type":"VEC3"
		},
		{
			"bufferView":25,
			"componentType":5126,
			"count":81,
			"type":"VEC3"
		},
		{
			"bufferView":26,
			"componentType":5126,
			"count":81,
			"type":"VEC4"
		},
		{
			"bufferView":27,
			"componentType":5126,
			"count":81,
			"type":"VEC3"
		},
		{
			"bufferView":28,
			"componentType":5126,
			"count":81,
			"type":"VEC3"
		},
		{
			"bufferView":29,
			"componentType":5126,
			"count":81,
			"type":"VEC4"
		},
		{
			"bufferView":30,
			"componentType":5126,
			"count":81,
			"type":"VEC3"
		},
		{
			"bufferView":31,
			"componentType":5126,
			"count":81,
			"type":"VEC3"
		},
		{
			"bufferView":32,
			"componentType":5126,
			"count":81,
			"type":"VEC4"
		},
		{
			"bufferView":33,
			"componentType":5126,
			"count":81,
			"type":"VEC3"
		},
		{
			"bufferView":34,
			"componentType":5126,
			"count":81,
			"type":"VEC3"
		},
		{
			"bufferView":35,
			"componentType":5126,
			"count":81,
			"type":"VEC4"
		},
		{
			"bufferView":36,
			"componentType":5126,
			"count":81,
			"type":"VEC3"
		}
	],
	"bufferViews":[
		{
			"buffer":0,
			"byteLength":43416,
			"byteOffset":0,
			"target":34962
		},
		{
			"buffer":0,
			"byteLength":28944,
			"byteOffset":43416,
			"target":34962
		},
		{
			"buffer":0,
			"byteLength":43416,
			"byteOffset":72360,
			"target":34962
		},
		{
			"buffer":0,
			"byteLength":14472,
			"byteOffset":115776,
			"target":34962
		},
		{
			"buffer":0,
			"byteLength":57888,
			"byteOffset":130248,
			"target":34962
		},
		{
			"buffer":0,
			"byteLength":9000,
			"byteOffset":188136,
			"target":34963
		},
		{
			"buffer":0,
			"byteLength":578,
			"byteOffset":197136
		},
		{
			"buffer":0,
			"byteLength":3367,
			"byteOffset":197716
		},
		{
			"buffer":0,
			"byteLength":384,
			"byteOffset":201084
		},
		{
			"buffer":0,
			"byteLength":5436,
			"byteOffset":201468,
			"target":34962
		},
		{
			"buffer":0,
			"byteLength":3624,
			"byteOffset":206904,
			"target":34962
		},
		{
			"buffer":0,
			"byteLength":5436,
			"byteOffset":210528,
			"target":34962
		},
		{
			"buffer":0,
			"byteLength":1812,
			"byteOffset":215964,
			"target":34962
		},
		{
			"buffer":0,
			"byteLength":7248,
			"byteOffset":217776,
			"target":34962
		},
		{
			"buffer":0,
			"byteLength":1446,
			"byteOffset":225024,
			"target":34963
		},
		{
			"buffer":0,
			"byteLength":28752,
			"byteOffset":226472,
			"target":34962
		},
		{
			"buffer":0,
			"byteLength":19168,
			"byteOffset":255224,
			"target":34962
		},
		{
			"buffer":0,
			"byteLength":28752,
			"byteOffset":274392,
			"target":34962
		},
		{
			"buffer":0,
			"byteLength":9584,
			"byteOffset":303144,
			"target":34962
		},
		{
			"buffer":0,
			"byteLength":38336,
			"byteOffset":312728,
			"target":34962
		},
		{
			"buffer":0,
			"byteLength":5460,
			"byteOffset":351064,
			"target":34963
		},
		{
			"buffer":0,
			"byteLength":324,
			"byteOffset":356524
		},
		{
			"buffer":0,
			"byteLength":972,
			"byteOffset":356848
		},
		{
			"buffer":0,
			"byteLength":1296,
			"byteOffset":357820
		},
		{
			"buffer":0,
			"byteLength":972,
			"byteOffset":359116
		},
		{
			"buffer":0,
			"byteLength":972,
			"byteOffset":360088
		},
		{
			"buffer":0,
			"byteLength":1296,
			"byteOffset":361060
		},
		{
			"buffer":0,
			"byteLength":972,
			"byteOffset":362356
		},
		{
			"buffer":0,
			"byteLength":972,
			"byteOffset":363328
		},
		{
			"buffer":0,
			"byteLength":1296,
			"byteOffset":364300
		},
		{
			"buffer":0,
			"byteLength":972,
			"byteOffset":365596
		},
		{
			"buffer":0,
			"byteLength":972,
			"byteOffset":366568
		},
		{
			"buffer":0,
			"byteLength":1296,
			"byteOffset":367540
		},
		{
			"buffer":0,
			"byteLength":972,
			"byteOffset":368836
		},
		{
			"buffer":0,
			"byteLength":972,
			"byteOffset":369808
		},
		{
			"buffer":0,
			"byteLength":1296,
			"byteOffset":370780
		},
		{
			"buffer":0,
			"byteLength":972,
			"byteOffset":372076
		}
	],
	"samplers":[
		{
			"magFilter":9728,
			"minFilter":9984
		}
	],
	"buffers":[
		{
			"byteLength":373048,
			"uri":"data:application/octet-stream;base64,"
		}
	]
}
