{
	"asset":{
		"generator":"Khronos glTF Blender I/O v3.5.30",
		"version":"2.0"
	},
	"scene":0,
	"scenes":[
		{
			"name":"Scene",
			"nodes":[
				6
			]
		}
	],
	"nodes":[
		{
			"name":"Eye",
			"rotation":[
				-2.6692537957728746e-08,
				-2.6692537957728746e-08,
				-0.7071067690849304,
				0.7071067690849304
			],
			"translation":[
				0.19589920341968536,
				0.35319745540618896,
				8.971647424971252e-09
			]
		},
		{
			"children":[
				0
			],
			"name":"Head",
			"translation":[
				0,
				1.0678555965423584,
				0
			]
		},
		{
			"name":"Arm.L",
			"rotation":[
				2.3090441914064286e-07,
				1.1287914958302281e-07,
				-0.5873590111732483,
				0.8093265295028687
			],
			"translation":[
				0.311959832906723,
				0.8468809127807617,
				-0.20026591420173645
			]
		},
		{
			"name":"Arm.R",
			"rotation":[
				2.3090441914064286e-07,
				1.1287914958302281e-07,
				-0.5873590111732483,
				0.8093265295028687
			],
			"translation":[
				0.311959832906723,
				0.8468809127807617,
				0.2028178572654724
			]
		},
		{
			"children":[
				1,
				2,
				3
			],
			"name":"Base"
		},
		{
			"mesh":0,
			"name":"Dalek",
			"skin":0
		},
		{
			"children":[
				5,
				4
			],
			"name":"Armature"
		}
	],
	"animations":[
		{
			"channels":[
				{
					"sampler":0,
					"target":{
						"node":4,
						"path":"translation"
					}
				},
				{
					"sampler":1,
					"target":{
						"node":4,
						"path":"rotation"
					}
				},
				{
					"sampler":2,
					"target":{
						"node":4,
						"path":"scale"
					}
				},
				{
					"sampler":3,
					"target":{
						"node":1,
						"path":"translation"
					}
				},
				{
					"sampler":4,
					"target":{
						"node":1,
						"path":"rotation"
					}
				},
				{
					"sampler":5,
					"target":{
						"node":1,
						"path":"scale"
					}
				},
				{
					"sampler":6,
					"target":{
						"node":0,
						"path":"translation"
					}
				},
				{
					"sampler":7,
					"target":{
						"node":0,
						"path":"rotation"
					}
				},
				{
					"sampler":8,
					"target":{
						"node":0,
						"path":"scale"
					}
				},
				{
					"sampler":9,
					"target":{
						"node":2,
						"path":"translation"
					}
				},
				{
					"sampler":10,
					"target":{
						"node":2,
						"path":"rotation"
					}
				},
				{
					"sampler":11,
					"target":{
						"node":2,
						"path":"scale"
					}
				},
				{
					"sampler":12,
					"target":{
						"node":3,
						"path":"translation"
					}
				},
				{
					"sampler":13,
					"target":{
						"node":3,
						"path":"rotation"
					}
				},
				{
					"sampler":14,
					"target":{
						"node":3,
						"path":"scale"
					}
				}
			],
			"name":"ArmatureAction",
			"samplers":[
				{
					"input":7,
					"interpolation":"LINEAR",
					"output":8
				},
				{
					"input":7,
					"interpolation":"LINEAR",
					"output":9
				},
				{
					"input":7,
					"interpolation":"LINEAR",
					"output":10
				},
				{
					"input":7,
					"interpolation":"LINEAR",
					"output":11
				},
				{
					"input":7,
					"interpolation":"LINEAR",
					"output":12
				},
				{
					"input":7,
					"interpolation":"LINEAR",
					"output":13
				},
				{
					"input":7,
					"interpolation":"LINEAR",
					"output":14
				},
				{
					"input":7,
					"interpolation":"LINEAR",
					"output":15
				},
				{
					"input":7,
					"interpolation":"LINEAR",
					"output":16
				},
				{
					"input":7,
					"interpolation":"LINEAR",
					"output":17
				},
				{
					"input":7,
					"interpolation":"LINEAR",
					"output":18
				},
				{
					"input":7,
					"interpolation":"LINEAR",
					"output":19
				},
				{
					"input":7,
					"interpolation":"LINEAR",
					"output":20
				},
				{
					"input":7,
					"interpolation":"LINEAR",
					"output":21
				},
				{
					"input":7,
					"interpolation":"LINEAR",
					"output":22
				}
			]
		}
	],
	"materials":[
		{
			"doubleSided":true,
			"name":"TestMaterial",
			"pbrMetallicRoughness":{
				"baseColorTexture":{
					"index":0
				},
				"metallicFactor":0,
				"roughnessFactor":0.5
			}
		}
	],
	"meshes":[
		{
			"name":"Cylinder",
			"primitives":[
				{
					"attributes":{
						"POSITION":0,
						"TEXCOORD_0":1,
						"NORMAL":2,
						"JOINTS_0":3,
						"WEIGHTS_0":4
					},
					"indices":5,
					"material":0
				}
			]
		}
	],
	"textures":[
		{
			"sampler":0,
			"source":0
		}
	],
	"images":[
		{
			"bufferView":6,
			"mimeType":"image/png",
			"name":"DalekColor"
		}
	],
	"skins":[
		{
			"inverseBindMatrices":6,
			"joints":[
				4,
				1,
				0,
				2,
				3
			],
			"name":"Armature"
		}
	],
	"accessors":[
		{
			"bufferView":0,
			"componentType":5126,
			"count":3618,
			"max":[
				0.8309764266014099,
				1.5340913534164429,
				0.37517115473747253
			],
			"min":[
				-0.32679665088653564,
				0.0005302336066961288,
				-0.37517115473747253
			],
			"type":"VEC3"
		},
		{
			"bufferView":1,
			"componentType":5126,
			"count":3618,
			"type":"VEC2"
		},
		{
			"bufferView":2,
			"componentType":5126,
			"count":3618,
			"type":"VEC3"
		},
		{
			"bufferView":3,
			"componentType":5121,
			"count":3618,
			"type":"VEC4"
		},
		{
			"bufferView":4,
			"componentType":5126,
			"count":3618,
			"type":"VEC4"
		},
		{
			"bufferView":5,
			"componentType":5123,
			"count":4500,
			"type":"SCALAR"
		},
		{
			"bufferView":7,
			"componentType":5126,
			"count":5,
			"type":"MAT4"
		},
		{
			"bufferView":8,
			"componentType":5126,
			"count":60,
			"max":[
				2.5
			],
			"min":[
				0.041666666666666664
			],
			"type":"SCALAR"
		},
		{
			"bufferView":9,
			"componentType":5126,
			"count":60,
			"type":"VEC3"
		},
		{
			"bufferView":10,
			"componentType":5126,
			"count":60,
			"type":"VEC4"
		},
		{
			"bufferView":11,
			"componentType":5126,
			"count":60,
			"type":"VEC3"
		},
		{
			"bufferView":12,
			"componentType":5126,
			"count":60,
			"type":"VEC3"
		},
		{
			"bufferView":13,
			"componentType":5126,
			"count":60,
			"type":"VEC4"
		},
		{
			"bufferView":14,
			"componentType":5126,
			"count":60,
			"type":"VEC3"
		},
		{
			"bufferView":15,
			"componentType":5126,
			"count":60,
			"type":"VEC3"
		},
		{
			"bufferView":16,
			"componentType":5126,
			"count":60,
			"type":"VEC4"
		},
		{
			"bufferView":17,
			"componentType":5126,
			"count":60,
			"type":"VEC3"
		},
		{
			"bufferView":18,
			"componentType":5126,
			"count":60,
			"type":"VEC3"
		},
		{
			"bufferView":19,
			"componentType":5126,
			"count":60,
			"type":"VEC4"
		},
		{
			"bufferView":20,
			"componentType":5126,
			"count":60,
			"type":"VEC3"
		},
		{
			"bufferView":21,
			"componentType":5126,
			"count":60,
			"type":"VEC3"
		},
		{
			"bufferView":22,
			"componentType":5126,
			"count":60,
			"type":"VEC4"
		},
		{
			"bufferView":23,
			"componentType":5126,
			"count":60,
			"type":"VEC3"
		}
	],
	"bufferViews":[
		{
			"buffer":0,
			"byteLength":43416,
			"byteOffset":0,
			"target":34962
		},
		{
			"buffer":0,
			"byteLength":28944,
			"byteOffset":43416,
			"target":34962
		},
		{
			"buffer":0,
			"byteLength":43416,
			"byteOffset":72360,
			"target":34962
		},
		{
			"buffer":0,
			"byteLength":14472,
			"byteOffset":115776,
			"target":34962
		},
		{
			"buffer":0,
			"byteLength":57888,
			"byteOffset":130248,
			"target":34962
		},
		{
			"buffer":0,
			"byteLength":9000,
			"byteOffset":188136,
			"target":34963
		},
		{
			"buffer":0,
			"byteLength":874,
			"byteOffset":197136
		},
		{
			"buffer":0,
			"byteLength":320,
			"byteOffset":198012
		},
		{
			"buffer":0,
			"byteLength":240,
			"byteOffset":198332
		},
		{
			"buffer":0,
			"byteLength":720,
			"byteOffset":198572
		},
		{
			"buffer":0,
			"byteLength":960,
			"byteOffset":199292
		},
		{
			"buffer":0,
			"byteLength":720,
			"byteOffset":200252
		},
		{
			"buffer":0,
			"byteLength":720,
			"byteOffset":200972
		},
		{
			"buffer":0,
			"byteLength":960,
			"byteOffset":201692
		},
		{
			"buffer":0,
			"byteLength":720,
			"byteOffset":202652
		},
		{
			"buffer":0,
			"byteLength":720,
			"byteOffset":203372
		},
		{
			"buffer":0,
			"byteLength":960,
			"byteOffset":204092
		},
		{
			"buffer":0,
			"byteLength":720,
			"byteOffset":205052
		},
		{
			"buffer":0,
			"byteLength":720,
			"byteOffset":205772
		},
		{
			"buffer":0,
			"byteLength":960,
			"byteOffset":206492
		},
		{
			"buffer":0,
			"byteLength":720,
			"byteOffset":207452
		},
		{
			"buffer":0,
			"byteLength":720,
			"byteOffset":208172
		},
		{
			"buffer":0,
			"byteLength":960,
			"byteOffset":208892
		},
		{
			"buffer":0,
			"byteLength":720,
			"byteOffset":209852
		}
	],
	"samplers":[
		{
			"magFilter":9728,
			"minFilter":9984
		}
	],
	"buffers":[
		{
			"byteLength":210572,
			"uri":"data:application/octet-stream;base64,"
		}
	]
}
