{
	"asset":{
		"generator":"Khronos glTF Blender I/O v3.5.30",
		"version":"2.0"
	},
	"scene":0,
	"scenes":[
		{
			"name":"Scene",
			"nodes":[
				0
			]
		}
	],
	"nodes":[
		{
			"mesh":0,
			"name":"Explosion"
		}
	],
	"materials":[
		{
			"doubleSided":true,
			"emissiveFactor":[
				1,
				1,
				1
			],
			"emissiveTexture":{
				"index":0
			},
			"name":"ExplosionMaterial",
			"pbrMetallicRoughness":{
				"baseColorFactor":[
					0,
					0,
					0,
					1
				],
				"metallicFactor":0,
				"roughnessFactor":0.5
			}
		}
	],
	"meshes":[
		{
			"name":"Torus",
			"primitives":[
				{
					"attributes":{
						"POSITION":0,
						"TEXCOORD_0":1,
						"NORMAL":2
					},
					"indices":3,
					"material":0
				}
			]
		}
	],
	"textures":[
		{
			"sampler":0,
			"source":0
		}
	],
	"images":[
		{
			"bufferView":4,
			"mimeType":"image/png",
			"name":"ExplosionLight"
		}
	],
	"accessors":[
		{
			"bufferView":0,
			"componentType":5126,
			"count":836,
			"max":[
				0.29999998211860657,
				0.15756909549236298,
				0.29999998211860657
			],
			"min":[
				-0.29999998211860657,
				-0.15756909549236298,
				-0.29999998211860657
			],
			"type":"VEC3"
		},
		{
			"bufferView":1,
			"componentType":5126,
			"count":836,
			"type":"VEC2"
		},
		{
			"bufferView":2,
			"componentType":5126,
			"count":836,
			"type":"VEC3"
		},
		{
			"bufferView":3,
			"componentType":5123,
			"count":1344,
			"type":"SCALAR"
		}
	],
	"bufferViews":[
		{
			"buffer":0,
			"byteLength":10032,
			"byteOffset":0,
			"target":34962
		},
		{
			"buffer":0,
			"byteLength":6688,
			"byteOffset":10032,
			"target":34962
		},
		{
			"buffer":0,
			"byteLength":10032,
			"byteOffset":16720,
			"target":34962
		},
		{
			"buffer":0,
			"byteLength":2688,
			"byteOffset":26752,
			"target":34963
		},
		{
			"buffer":0,
			"byteLength":2715,
			"byteOffset":29440
		}
	],
	"samplers":[
		{
			"magFilter":9728,
			"minFilter":9984
		}
	],
	"buffers":[
		{
			"byteLength":32156,
			"uri":"data:application/octet-stream;base64,"
		}
	]
}
