{
	"asset":{
		"generator":"Khronos glTF Blender I/O v5.0.21",
		"version":"2.0"
	},
	"scene":0,
	"scenes":[
		{
			"name":"Scene",
			"nodes":[
				0,
				1,
				2,
				3,
				4,
				5,
				6,
				7,
				8,
				9,
				10,
				11,
				12,
				13,
				14,
				15,
				16,
				17,
				18,
				19,
				20,
				21,
				22,
				23,
				24,
				25,
				26,
				27,
				28,
				29,
				30,
				31,
				32,
				33,
				34,
				35,
				36,
				37,
				38,
				39,
				40,
				41
			]
		}
	],
	"nodes":[
		{
			"mesh":0,
			"name":"DownSkirting",
			"translation":[
				0,
				0,
				2
			]
		},
		{
			"mesh":1,
			"name":"Wall",
			"translation":[
				0,
				1,
				2
			]
		},
		{
			"mesh":2,
			"name":"ExternalWall",
			"translation":[
				0,
				1,
				3
			]
		},
		{
			"mesh":3,
			"name":"ExternalDownSkirting",
			"translation":[
				0,
				0,
				3
			]
		},
		{
			"mesh":4,
			"name":"InternalDownSkirting",
			"translation":[
				0,
				0,
				1
			]
		},
		{
			"mesh":5,
			"name":"InternalWall",
			"translation":[
				0,
				1,
				1
			]
		},
		{
			"mesh":6,
			"name":"UpSkirting",
			"translation":[
				0,
				2,
				2
			]
		},
		{
			"mesh":7,
			"name":"LightWall",
			"translation":[
				-2,
				1,
				0
			]
		},
		{
			"mesh":8,
			"name":"LightInternalWall",
			"translation":[
				-2,
				1,
				-1
			]
		},
		{
			"mesh":9,
			"name":"BorderLightFloor",
			"translation":[
				-3,
				0,
				1
			]
		},
		{
			"mesh":10,
			"name":"ExternalLightFloor",
			"translation":[
				-2,
				0,
				2
			]
		},
		{
			"mesh":11,
			"name":"LightFloor",
			"translation":[
				-2,
				0,
				1
			]
		},
		{
			"mesh":12,
			"name":"InternalLightFloor",
			"rotation":[
				0,
				-0.7071067094802856,
				0,
				0.7071068286895752
			],
			"translation":[
				-3,
				0,
				2
			]
		},
		{
			"mesh":13,
			"name":"LightExternalWall",
			"translation":[
				-2,
				1,
				1
			]
		},
		{
			"mesh":14,
			"name":"ExternalUpSkirting",
			"translation":[
				0,
				2,
				3
			]
		},
		{
			"mesh":15,
			"name":"InternalUpSkirting",
			"translation":[
				0,
				2,
				1
			]
		},
		{
			"mesh":16,
			"name":"LightDownSkirting",
			"translation":[
				-2,
				0,
				0
			]
		},
		{
			"mesh":17,
			"name":"ExternalLightDownSkirting",
			"translation":[
				-2,
				0,
				1
			]
		},
		{
			"mesh":18,
			"name":"InternalLightDownSkirting",
			"translation":[
				-2,
				0,
				-1
			]
		},
		{
			"mesh":19,
			"name":"LightUpSkirting",
			"translation":[
				-2,
				2,
				0
			]
		},
		{
			"mesh":20,
			"name":"ExternalLightUpSkirting",
			"translation":[
				-2,
				2,
				1
			]
		},
		{
			"mesh":21,
			"name":"InternalLightUpSkirting",
			"translation":[
				-2,
				2,
				-1
			]
		},
		{
			"mesh":22,
			"name":"Floor.001",
			"translation":[
				-1,
				0,
				2
			]
		},
		{
			"mesh":23,
			"name":"Floor.002",
			"translation":[
				-1,
				0,
				3
			]
		},
		{
			"mesh":24,
			"name":"AngleLightA",
			"translation":[
				-4,
				2,
				-1
			]
		},
		{
			"mesh":25,
			"name":"LightA",
			"rotation":[
				0,
				0,
				0.7071068286895752,
				0.7071068286895752
			],
			"translation":[
				-4,
				1,
				-1
			]
		},
		{
			"mesh":26,
			"name":"LladderCenter",
			"rotation":[
				0,
				0.7071068286895752,
				0,
				0.7071068286895752
			],
			"translation":[
				-5,
				0,
				-1
			]
		},
		{
			"mesh":27,
			"name":"LladderRight",
			"rotation":[
				0,
				0.7071068286895752,
				0,
				0.7071068286895752
			],
			"translation":[
				-4,
				0,
				-1
			]
		},
		{
			"mesh":28,
			"name":"LladderLeft",
			"rotation":[
				0,
				0.7071070671081543,
				0,
				0.7071064710617065
			],
			"translation":[
				-6,
				0,
				-1
			]
		},
		{
			"mesh":29,
			"name":"Border",
			"translation":[
				-2,
				1,
				0
			]
		},
		{
			"mesh":30,
			"name":"Door",
			"rotation":[
				0,
				0.7071067094802856,
				0,
				0.7071068286895752
			],
			"translation":[
				1,
				0,
				3
			]
		},
		{
			"mesh":31,
			"name":"DoorLeaf",
			"rotation":[
				0,
				0.7071068286895752,
				0,
				0.7071068286895752
			],
			"translation":[
				1,
				0,
				2.5
			]
		},
		{
			"mesh":32,
			"name":"LightWallStart",
			"rotation":[
				0,
				0.7071068286895752,
				0,
				0.7071068286895752
			],
			"translation":[
				-3,
				1,
				-1
			]
		},
		{
			"mesh":33,
			"name":"LightWallEnd",
			"rotation":[
				0,
				0.7071068286895752,
				0,
				0.7071068286895752
			],
			"translation":[
				-1,
				1,
				1
			]
		},
		{
			"mesh":34,
			"name":"ExternalCutFloor",
			"translation":[
				-2,
				2,
				1
			]
		},
		{
			"mesh":35,
			"name":"CutFloor",
			"translation":[
				-2,
				2,
				0
			]
		},
		{
			"mesh":36,
			"name":"LightADownSkirting",
			"rotation":[
				0,
				0.7071067094802856,
				0,
				0.7071068286895752
			],
			"translation":[
				-3,
				0,
				-1
			]
		},
		{
			"mesh":37,
			"name":"InternalCutFloor",
			"translation":[
				-2,
				2,
				-1
			]
		},
		{
			"mesh":38,
			"name":"LightAUpSkirting",
			"rotation":[
				0,
				0.7071067094802856,
				0,
				0.7071068286895752
			],
			"translation":[
				-3,
				2,
				-1
			]
		},
		{
			"mesh":39,
			"name":"Glass",
			"translation":[
				-2,
				1,
				3
			]
		},
		{
			"mesh":40,
			"name":"GlassEnd",
			"translation":[
				-3,
				0,
				3
			]
		},
		{
			"mesh":41,
			"name":"GlassWall",
			"translation":[
				-2,
				0,
				3
			]
		}
	],
	"materials":[
		{
			"doubleSided":true,
			"emissiveFactor":[
				1,
				1,
				1
			],
			"emissiveTexture":{
				"index":0
			},
			"name":"TileMaterial",
			"pbrMetallicRoughness":{
				"baseColorTexture":{
					"index":1
				},
				"metallicRoughnessTexture":{
					"index":2
				},
				"roughnessFactor":0.5
			}
		}
	],
	"meshes":[
		{
			"name":"DownSkirting",
			"primitives":[
				{
					"attributes":{
						"POSITION":0,
						"NORMAL":1,
						"TEXCOORD_0":2
					},
					"indices":3,
					"material":0
				}
			]
		},
		{
			"name":"Wall",
			"primitives":[
				{
					"attributes":{
						"POSITION":4,
						"NORMAL":5,
						"TEXCOORD_0":6
					},
					"indices":7,
					"material":0
				}
			]
		},
		{
			"name":"ExternalWall",
			"primitives":[
				{
					"attributes":{
						"POSITION":8,
						"NORMAL":9,
						"TEXCOORD_0":10
					},
					"indices":11,
					"material":0
				}
			]
		},
		{
			"name":"ExternalDownSkirting",
			"primitives":[
				{
					"attributes":{
						"POSITION":12,
						"NORMAL":13,
						"TEXCOORD_0":14
					},
					"indices":15,
					"material":0
				}
			]
		},
		{
			"name":"InternalDownSkirting",
			"primitives":[
				{
					"attributes":{
						"POSITION":16,
						"NORMAL":17,
						"TEXCOORD_0":18
					},
					"indices":19,
					"material":0
				}
			]
		},
		{
			"name":"InternalWall",
			"primitives":[
				{
					"attributes":{
						"POSITION":20,
						"NORMAL":21,
						"TEXCOORD_0":22
					},
					"indices":23,
					"material":0
				}
			]
		},
		{
			"name":"UpSkirting",
			"primitives":[
				{
					"attributes":{
						"POSITION":24,
						"NORMAL":25,
						"TEXCOORD_0":26
					},
					"indices":27,
					"material":0
				}
			]
		},
		{
			"name":"LightWall",
			"primitives":[
				{
					"attributes":{
						"POSITION":28,
						"NORMAL":29,
						"TEXCOORD_0":30
					},
					"indices":31,
					"material":0
				}
			]
		},
		{
			"name":"LightInternalWall",
			"primitives":[
				{
					"attributes":{
						"POSITION":32,
						"NORMAL":33,
						"TEXCOORD_0":34
					},
					"indices":35,
					"material":0
				}
			]
		},
		{
			"name":"BorderLightFloor",
			"primitives":[
				{
					"attributes":{
						"POSITION":36,
						"NORMAL":37,
						"TEXCOORD_0":38
					},
					"indices":39,
					"material":0
				}
			]
		},
		{
			"name":"ExternalLightFloor",
			"primitives":[
				{
					"attributes":{
						"POSITION":40,
						"NORMAL":41,
						"TEXCOORD_0":42
					},
					"indices":7,
					"material":0
				}
			]
		},
		{
			"name":"LightFloor",
			"primitives":[
				{
					"attributes":{
						"POSITION":43,
						"NORMAL":44,
						"TEXCOORD_0":45
					},
					"indices":7,
					"material":0
				}
			]
		},
		{
			"name":"InternalLightFloor",
			"primitives":[
				{
					"attributes":{
						"POSITION":46,
						"NORMAL":47,
						"TEXCOORD_0":48
					},
					"indices":7,
					"material":0
				}
			]
		},
		{
			"name":"LightExternalWall",
			"primitives":[
				{
					"attributes":{
						"POSITION":49,
						"NORMAL":50,
						"TEXCOORD_0":51
					},
					"indices":52,
					"material":0
				}
			]
		},
		{
			"name":"ExternalUpSkirting",
			"primitives":[
				{
					"attributes":{
						"POSITION":53,
						"NORMAL":54,
						"TEXCOORD_0":55
					},
					"indices":56,
					"material":0
				}
			]
		},
		{
			"name":"InternalUpSkirting",
			"primitives":[
				{
					"attributes":{
						"POSITION":57,
						"NORMAL":58,
						"TEXCOORD_0":59
					},
					"indices":60,
					"material":0
				}
			]
		},
		{
			"name":"LightDownSkirting",
			"primitives":[
				{
					"attributes":{
						"POSITION":61,
						"NORMAL":62,
						"TEXCOORD_0":63
					},
					"indices":3,
					"material":0
				}
			]
		},
		{
			"name":"ExternalLightDownSkirting",
			"primitives":[
				{
					"attributes":{
						"POSITION":64,
						"NORMAL":65,
						"TEXCOORD_0":66
					},
					"indices":15,
					"material":0
				}
			]
		},
		{
			"name":"InternalLightDownSkirting",
			"primitives":[
				{
					"attributes":{
						"POSITION":67,
						"NORMAL":68,
						"TEXCOORD_0":69
					},
					"indices":19,
					"material":0
				}
			]
		},
		{
			"name":"LightUpSkirting",
			"primitives":[
				{
					"attributes":{
						"POSITION":70,
						"NORMAL":71,
						"TEXCOORD_0":72
					},
					"indices":27,
					"material":0
				}
			]
		},
		{
			"name":"ExternalLightUpSkirting",
			"primitives":[
				{
					"attributes":{
						"POSITION":73,
						"NORMAL":74,
						"TEXCOORD_0":75
					},
					"indices":56,
					"material":0
				}
			]
		},
		{
			"name":"InternalLightUpSkirting",
			"primitives":[
				{
					"attributes":{
						"POSITION":76,
						"NORMAL":77,
						"TEXCOORD_0":78
					},
					"indices":60,
					"material":0
				}
			]
		},
		{
			"name":"Floor.001",
			"primitives":[
				{
					"attributes":{
						"POSITION":79,
						"NORMAL":80,
						"TEXCOORD_0":81
					},
					"indices":7,
					"material":0
				}
			]
		},
		{
			"name":"Floor.002",
			"primitives":[
				{
					"attributes":{
						"POSITION":82,
						"NORMAL":83,
						"TEXCOORD_0":84
					},
					"indices":7,
					"material":0
				}
			]
		},
		{
			"name":"AngleLightA",
			"primitives":[
				{
					"attributes":{
						"POSITION":85,
						"NORMAL":86,
						"TEXCOORD_0":87
					},
					"indices":7,
					"material":0
				}
			]
		},
		{
			"name":"LightA",
			"primitives":[
				{
					"attributes":{
						"POSITION":88,
						"NORMAL":89,
						"TEXCOORD_0":90
					},
					"indices":7,
					"material":0
				}
			]
		},
		{
			"name":"LladderCenter",
			"primitives":[
				{
					"attributes":{
						"POSITION":91,
						"NORMAL":92,
						"TEXCOORD_0":93
					},
					"indices":94,
					"material":0
				}
			]
		},
		{
			"name":"LladderRight",
			"primitives":[
				{
					"attributes":{
						"POSITION":95,
						"NORMAL":96,
						"TEXCOORD_0":97
					},
					"indices":98,
					"material":0
				}
			]
		},
		{
			"name":"LladderLeft",
			"primitives":[
				{
					"attributes":{
						"POSITION":99,
						"NORMAL":100,
						"TEXCOORD_0":101
					},
					"indices":102,
					"material":0
				}
			]
		},
		{
			"name":"Border",
			"primitives":[
				{
					"attributes":{
						"POSITION":103,
						"NORMAL":104,
						"TEXCOORD_0":105
					},
					"indices":106,
					"material":0
				}
			]
		},
		{
			"name":"Door",
			"primitives":[
				{
					"attributes":{
						"POSITION":107,
						"NORMAL":108,
						"TEXCOORD_0":109
					},
					"indices":110,
					"material":0
				}
			]
		},
		{
			"name":"DoorLeaf",
			"primitives":[
				{
					"attributes":{
						"POSITION":111,
						"NORMAL":112,
						"TEXCOORD_0":113
					},
					"indices":114,
					"material":0
				}
			]
		},
		{
			"name":"LightWallStart",
			"primitives":[
				{
					"attributes":{
						"POSITION":115,
						"NORMAL":116,
						"TEXCOORD_0":117
					},
					"indices":118,
					"material":0
				}
			]
		},
		{
			"name":"LightWallEnd",
			"primitives":[
				{
					"attributes":{
						"POSITION":119,
						"NORMAL":120,
						"TEXCOORD_0":121
					},
					"indices":122,
					"material":0
				}
			]
		},
		{
			"name":"ExternalCutFloor",
			"primitives":[
				{
					"attributes":{
						"POSITION":123,
						"NORMAL":124,
						"TEXCOORD_0":125
					},
					"indices":126,
					"material":0
				}
			]
		},
		{
			"name":"CutFloor",
			"primitives":[
				{
					"attributes":{
						"POSITION":127,
						"NORMAL":128,
						"TEXCOORD_0":129
					},
					"indices":130,
					"material":0
				}
			]
		},
		{
			"name":"LightDownSkirting.001",
			"primitives":[
				{
					"attributes":{
						"POSITION":131,
						"NORMAL":132,
						"TEXCOORD_0":133
					},
					"indices":3,
					"material":0
				}
			]
		},
		{
			"name":"InternalCutFloor",
			"primitives":[
				{
					"attributes":{
						"POSITION":134,
						"NORMAL":135,
						"TEXCOORD_0":136
					},
					"indices":137,
					"material":0
				}
			]
		},
		{
			"name":"LightAUpSkirting",
			"primitives":[
				{
					"attributes":{
						"POSITION":138,
						"NORMAL":139,
						"TEXCOORD_0":140
					},
					"indices":27,
					"material":0
				}
			]
		},
		{
			"name":"Glass",
			"primitives":[
				{
					"attributes":{
						"POSITION":141,
						"NORMAL":142,
						"TEXCOORD_0":143
					},
					"indices":144,
					"material":0
				}
			]
		},
		{
			"name":"GlassEnd",
			"primitives":[
				{
					"attributes":{
						"POSITION":145,
						"NORMAL":146,
						"TEXCOORD_0":147
					},
					"indices":148,
					"material":0
				}
			]
		},
		{
			"name":"GlassWall",
			"primitives":[
				{
					"attributes":{
						"POSITION":149,
						"NORMAL":150,
						"TEXCOORD_0":151
					},
					"indices":152,
					"material":0
				}
			]
		}
	],
	"textures":[
		{
			"sampler":0,
			"source":0
		},
		{
			"sampler":1,
			"source":1
		},
		{
			"sampler":0,
			"source":2
		}
	],
	"images":[
		{
			"mimeType":"image/png",
			"name":"TilesLight",
			"uri":"TilesLight.png"
		},
		{
			"mimeType":"image/png",
			"name":"TilesColor",
			"uri":"TilesColor.png"
		},
		{
			"mimeType":"image/png",
			"name":"TileAlphaMask",
			"uri":"TileAlphaMask.png"
		}
	],
	"accessors":[
		{
			"bufferView":0,
			"componentType":5126,
			"count":8,
			"max":[
				0,
				0.5,
				0.5
			],
			"min":[
				-0.20000000298023224,
				0,
				-0.5
			],
			"type":"VEC3"
		},
		{
			"bufferView":1,
			"componentType":5126,
			"count":8,
			"type":"VEC3"
		},
		{
			"bufferView":2,
			"componentType":5126,
			"count":8,
			"type":"VEC2"
		},
		{
			"bufferView":3,
			"componentType":5123,
			"count":12,
			"type":"SCALAR"
		},
		{
			"bufferView":4,
			"componentType":5126,
			"count":4,
			"max":[
				0,
				0.5,
				0.5
			],
			"min":[
				0,
				-0.5,
				-0.5
			],
			"type":"VEC3"
		},
		{
			"bufferView":5,
			"componentType":5126,
			"count":4,
			"type":"VEC3"
		},
		{
			"bufferView":6,
			"componentType":5126,
			"count":4,
			"type":"VEC2"
		},
		{
			"bufferView":7,
			"componentType":5123,
			"count":6,
			"type":"SCALAR"
		},
		{
			"bufferView":8,
			"componentType":5126,
			"count":12,
			"max":[
				0.5,
				0.5,
				0
			],
			"min":[
				0,
				-0.5,
				-0.5
			],
			"type":"VEC3"
		},
		{
			"bufferView":9,
			"componentType":5126,
			"count":12,
			"type":"VEC3"
		},
		{
			"bufferView":10,
			"componentType":5126,
			"count":12,
			"type":"VEC2"
		},
		{
			"bufferView":11,
			"componentType":5123,
			"count":18,
			"type":"SCALAR"
		},
		{
			"bufferView":12,
			"componentType":5126,
			"count":24,
			"max":[
				0.5,
				0.5,
				0.19999980926513672
			],
			"min":[
				-0.19999998807907104,
				0,
				-0.5
			],
			"type":"VEC3"
		},
		{
			"bufferView":13,
			"componentType":5126,
			"count":24,
			"type":"VEC3"
		},
		{
			"bufferView":14,
			"componentType":5126,
			"count":24,
			"type":"VEC2"
		},
		{
			"bufferView":15,
			"componentType":5123,
			"count":36,
			"type":"SCALAR"
		},
		{
			"bufferView":16,
			"componentType":5126,
			"count":14,
			"max":[
				0,
				0.5,
				0.5
			],
			"min":[
				-0.500196099281311,
				0,
				-2.9802322387695312e-08
			],
			"type":"VEC3"
		},
		{
			"bufferView":17,
			"componentType":5126,
			"count":14,
			"type":"VEC3"
		},
		{
			"bufferView":18,
			"componentType":5126,
			"count":14,
			"type":"VEC2"
		},
		{
			"bufferView":19,
			"componentType":5123,
			"count":18,
			"type":"SCALAR"
		},
		{
			"bufferView":20,
			"componentType":5126,
			"count":12,
			"max":[
				0,
				0.5,
				0.5
			],
			"min":[
				-0.5,
				-0.5,
				-2.9802322387695312e-08
			],
			"type":"VEC3"
		},
		{
			"bufferView":21,
			"componentType":5126,
			"count":12,
			"type":"VEC3"
		},
		{
			"bufferView":22,
			"componentType":5126,
			"count":12,
			"type":"VEC2"
		},
		{
			"bufferView":23,
			"componentType":5123,
			"count":18,
			"type":"SCALAR"
		},
		{
			"bufferView":24,
			"componentType":5126,
			"count":8,
			"max":[
				0,
				0,
				0.5
			],
			"min":[
				-0.20000000298023224,
				-0.5,
				-0.5
			],
			"type":"VEC3"
		},
		{
			"bufferView":25,
			"componentType":5126,
			"count":8,
			"type":"VEC3"
		},
		{
			"bufferView":26,
			"componentType":5126,
			"count":8,
			"type":"VEC2"
		},
		{
			"bufferView":27,
			"componentType":5123,
			"count":12,
			"type":"SCALAR"
		},
		{
			"bufferView":28,
			"componentType":5126,
			"count":32,
			"max":[
				0,
				0.5,
				0.5
			],
			"min":[
				-0.1407044529914856,
				-0.5,
				-0.5000001192092896
			],
			"type":"VEC3"
		},
		{
			"bufferView":29,
			"componentType":5126,
			"count":32,
			"type":"VEC3"
		},
		{
			"bufferView":30,
			"componentType":5126,
			"count":32,
			"type":"VEC2"
		},
		{
			"bufferView":31,
			"componentType":5123,
			"count":48,
			"type":"SCALAR"
		},
		{
			"bufferView":32,
			"componentType":5126,
			"count":124,
			"max":[
				0,
				0.5,
				0.5
			],
			"min":[
				-0.5000001192092896,
				-0.5,
				-2.9802322387695312e-08
			],
			"type":"VEC3"
		},
		{
			"bufferView":33,
			"componentType":5126,
			"count":124,
			"type":"VEC3"
		},
		{
			"bufferView":34,
			"componentType":5126,
			"count":124,
			"type":"VEC2"
		},
		{
			"bufferView":35,
			"componentType":5123,
			"count":186,
			"type":"SCALAR"
		},
		{
			"bufferView":36,
			"componentType":5126,
			"count":4,
			"max":[
				0.5000000596046448,
				4.371138828673793e-08,
				0.5000000596046448
			],
			"min":[
				-0.5000000596046448,
				-4.371138828673793e-08,
				-0.5000000596046448
			],
			"type":"VEC3"
		},
		{
			"bufferView":37,
			"componentType":5126,
			"count":4,
			"type":"VEC3"
		},
		{
			"bufferView":38,
			"componentType":5126,
			"count":4,
			"type":"VEC2"
		},
		{
			"bufferView":39,
			"componentType":5123,
			"count":6,
			"type":"SCALAR"
		},
		{
			"bufferView":40,
			"componentType":5126,
			"count":4,
			"max":[
				0.5000000596046448,
				0,
				0.5
			],
			"min":[
				-0.5000000596046448,
				0,
				-0.5
			],
			"type":"VEC3"
		},
		{
			"bufferView":41,
			"componentType":5126,
			"count":4,
			"type":"VEC3"
		},
		{
			"bufferView":42,
			"componentType":5126,
			"count":4,
			"type":"VEC2"
		},
		{
			"bufferView":43,
			"componentType":5126,
			"count":4,
			"max":[
				0.5,
				0,
				0.5
			],
			"min":[
				-0.5,
				0,
				-0.5
			],
			"type":"VEC3"
		},
		{
			"bufferView":44,
			"componentType":5126,
			"count":4,
			"type":"VEC3"
		},
		{
			"bufferView":45,
			"componentType":5126,
			"count":4,
			"type":"VEC2"
		},
		{
			"bufferView":46,
			"componentType":5126,
			"count":4,
			"max":[
				0.5,
				8.74227694680485e-08,
				0.5
			],
			"min":[
				-0.5,
				-8.74227694680485e-08,
				-0.5
			],
			"type":"VEC3"
		},
		{
			"bufferView":47,
			"componentType":5126,
			"count":4,
			"type":"VEC3"
		},
		{
			"bufferView":48,
			"componentType":5126,
			"count":4,
			"type":"VEC2"
		},
		{
			"bufferView":49,
			"componentType":5126,
			"count":176,
			"max":[
				0.5,
				0.5,
				0.1407044529914856
			],
			"min":[
				-0.14070433378219604,
				-0.5,
				-0.5000001192092896
			],
			"type":"VEC3"
		},
		{
			"bufferView":50,
			"componentType":5126,
			"count":176,
			"type":"VEC3"
		},
		{
			"bufferView":51,
			"componentType":5126,
			"count":176,
			"type":"VEC2"
		},
		{
			"bufferView":52,
			"componentType":5123,
			"count":270,
			"type":"SCALAR"
		},
		{
			"bufferView":53,
			"componentType":5126,
			"count":24,
			"max":[
				0.5,
				0,
				0.19999980926513672
			],
			"min":[
				-0.19999998807907104,
				-0.5,
				-0.5
			],
			"type":"VEC3"
		},
		{
			"bufferView":54,
			"componentType":5126,
			"count":24,
			"type":"VEC3"
		},
		{
			"bufferView":55,
			"componentType":5126,
			"count":24,
			"type":"VEC2"
		},
		{
			"bufferView":56,
			"componentType":5123,
			"count":36,
			"type":"SCALAR"
		},
		{
			"bufferView":57,
			"componentType":5126,
			"count":14,
			"max":[
				0,
				0,
				0.5
			],
			"min":[
				-0.500196099281311,
				-0.5,
				0
			],
			"type":"VEC3"
		},
		{
			"bufferView":58,
			"componentType":5126,
			"count":14,
			"type":"VEC3"
		},
		{
			"bufferView":59,
			"componentType":5126,
			"count":14,
			"type":"VEC2"
		},
		{
			"bufferView":60,
			"componentType":5123,
			"count":18,
			"type":"SCALAR"
		},
		{
			"bufferView":61,
			"componentType":5126,
			"count":8,
			"max":[
				0,
				0.5,
				0.5
			],
			"min":[
				-0.20000000298023224,
				0,
				-0.5
			],
			"type":"VEC3"
		},
		{
			"bufferView":62,
			"componentType":5126,
			"count":8,
			"type":"VEC3"
		},
		{
			"bufferView":63,
			"componentType":5126,
			"count":8,
			"type":"VEC2"
		},
		{
			"bufferView":64,
			"componentType":5126,
			"count":24,
			"max":[
				0.5,
				0.5,
				0.19999980926513672
			],
			"min":[
				-0.19999998807907104,
				0,
				-0.5
			],
			"type":"VEC3"
		},
		{
			"bufferView":65,
			"componentType":5126,
			"count":24,
			"type":"VEC3"
		},
		{
			"bufferView":66,
			"componentType":5126,
			"count":24,
			"type":"VEC2"
		},
		{
			"bufferView":67,
			"componentType":5126,
			"count":14,
			"max":[
				0,
				0.5,
				0.5
			],
			"min":[
				-0.500196099281311,
				0,
				-2.9802322387695312e-08
			],
			"type":"VEC3"
		},
		{
			"bufferView":68,
			"componentType":5126,
			"count":14,
			"type":"VEC3"
		},
		{
			"bufferView":69,
			"componentType":5126,
			"count":14,
			"type":"VEC2"
		},
		{
			"bufferView":70,
			"componentType":5126,
			"count":8,
			"max":[
				0,
				0,
				0.5
			],
			"min":[
				-0.20000000298023224,
				-0.5,
				-0.5
			],
			"type":"VEC3"
		},
		{
			"bufferView":71,
			"componentType":5126,
			"count":8,
			"type":"VEC3"
		},
		{
			"bufferView":72,
			"componentType":5126,
			"count":8,
			"type":"VEC2"
		},
		{
			"bufferView":73,
			"componentType":5126,
			"count":24,
			"max":[
				0.5,
				0,
				0.19999980926513672
			],
			"min":[
				-0.19999998807907104,
				-0.5,
				-0.5
			],
			"type":"VEC3"
		},
		{
			"bufferView":74,
			"componentType":5126,
			"count":24,
			"type":"VEC3"
		},
		{
			"bufferView":75,
			"componentType":5126,
			"count":24,
			"type":"VEC2"
		},
		{
			"bufferView":76,
			"componentType":5126,
			"count":14,
			"max":[
				0,
				0,
				0.5
			],
			"min":[
				-0.500196099281311,
				-0.5,
				0
			],
			"type":"VEC3"
		},
		{
			"bufferView":77,
			"componentType":5126,
			"count":14,
			"type":"VEC3"
		},
		{
			"bufferView":78,
			"componentType":5126,
			"count":14,
			"type":"VEC2"
		},
		{
			"bufferView":79,
			"componentType":5126,
			"count":4,
			"max":[
				0.5,
				0,
				0.5
			],
			"min":[
				-0.5,
				0,
				-0.5
			],
			"type":"VEC3"
		},
		{
			"bufferView":80,
			"componentType":5126,
			"count":4,
			"type":"VEC3"
		},
		{
			"bufferView":81,
			"componentType":5126,
			"count":4,
			"type":"VEC2"
		},
		{
			"bufferView":82,
			"componentType":5126,
			"count":4,
			"max":[
				0.5,
				0,
				0.5
			],
			"min":[
				-0.5,
				0,
				-0.5
			],
			"type":"VEC3"
		},
		{
			"bufferView":83,
			"componentType":5126,
			"count":4,
			"type":"VEC3"
		},
		{
			"bufferView":84,
			"componentType":5126,
			"count":4,
			"type":"VEC2"
		},
		{
			"bufferView":85,
			"componentType":5126,
			"count":4,
			"max":[
				0.4999999701976776,
				0.5,
				0
			],
			"min":[
				-0.4999999701976776,
				-0.5,
				0
			],
			"type":"VEC3"
		},
		{
			"bufferView":86,
			"componentType":5126,
			"count":4,
			"type":"VEC3"
		},
		{
			"bufferView":87,
			"componentType":5126,
			"count":4,
			"type":"VEC2"
		},
		{
			"bufferView":88,
			"componentType":5126,
			"count":4,
			"max":[
				0.4999999701976776,
				0.5,
				1.033160259567012e-07
			],
			"min":[
				-0.4999999701976776,
				-0.5,
				-1.033160259567012e-07
			],
			"type":"VEC3"
		},
		{
			"bufferView":89,
			"componentType":5126,
			"count":4,
			"type":"VEC3"
		},
		{
			"bufferView":90,
			"componentType":5126,
			"count":4,
			"type":"VEC2"
		},
		{
			"bufferView":91,
			"componentType":5126,
			"count":40,
			"max":[
				0.5,
				1,
				0.5
			],
			"min":[
				-0.5,
				0,
				-0.5
			],
			"type":"VEC3"
		},
		{
			"bufferView":92,
			"componentType":5126,
			"count":40,
			"type":"VEC3"
		},
		{
			"bufferView":93,
			"componentType":5126,
			"count":40,
			"type":"VEC2"
		},
		{
			"bufferView":94,
			"componentType":5123,
			"count":60,
			"type":"SCALAR"
		},
		{
			"bufferView":95,
			"componentType":5126,
			"count":58,
			"max":[
				0.5,
				1,
				1.4901161193847656e-08
			],
			"min":[
				-0.500411868095398,
				-0.0005882084369659424,
				-0.5
			],
			"type":"VEC3"
		},
		{
			"bufferView":96,
			"componentType":5126,
			"count":58,
			"type":"VEC3"
		},
		{
			"bufferView":97,
			"componentType":5126,
			"count":58,
			"type":"VEC2"
		},
		{
			"bufferView":98,
			"componentType":5123,
			"count":90,
			"type":"SCALAR"
		},
		{
			"bufferView":99,
			"componentType":5126,
			"count":58,
			"max":[
				0.5,
				1.0004117488861084,
				0.5
			],
			"min":[
				-0.5004117488861084,
				0,
				-2.881023419831763e-08
			],
			"type":"VEC3"
		},
		{
			"bufferView":100,
			"componentType":5126,
			"count":58,
			"type":"VEC3"
		},
		{
			"bufferView":101,
			"componentType":5126,
			"count":58,
			"type":"VEC2"
		},
		{
			"bufferView":102,
			"componentType":5123,
			"count":90,
			"type":"SCALAR"
		},
		{
			"bufferView":103,
			"componentType":5126,
			"count":92,
			"max":[
				-8.940696716308594e-08,
				0.5,
				-0.484375
			],
			"min":[
				-0.17000004649162292,
				-0.5999999046325684,
				-0.515625
			],
			"type":"VEC3"
		},
		{
			"bufferView":104,
			"componentType":5126,
			"count":92,
			"type":"VEC3"
		},
		{
			"bufferView":105,
			"componentType":5126,
			"count":92,
			"type":"VEC2"
		},
		{
			"bufferView":106,
			"componentType":5123,
			"count":198,
			"type":"SCALAR"
		},
		{
			"bufferView":107,
			"componentType":5126,
			"count":362,
			"max":[
				0.500644326210022,
				2.5000548362731934,
				1.5000269412994385
			],
			"min":[
				-0.20009851455688477,
				6.198883056640625e-06,
				-0.5000274181365967
			],
			"type":"VEC3"
		},
		{
			"bufferView":108,
			"componentType":5126,
			"count":362,
			"type":"VEC3"
		},
		{
			"bufferView":109,
			"componentType":5126,
			"count":362,
			"type":"VEC2"
		},
		{
			"bufferView":110,
			"componentType":5123,
			"count":546,
			"type":"SCALAR"
		},
		{
			"bufferView":111,
			"componentType":5126,
			"count":16,
			"max":[
				0.20032817125320435,
				2.2500078678131104,
				0.0003878073475789279
			],
			"min":[
				-0.20032817125320435,
				-0.00016391277313232422,
				-0.8000006079673767
			],
			"type":"VEC3"
		},
		{
			"bufferView":112,
			"componentType":5126,
			"count":16,
			"type":"VEC3"
		},
		{
			"bufferView":113,
			"componentType":5126,
			"count":16,
			"type":"VEC2"
		},
		{
			"bufferView":114,
			"componentType":5123,
			"count":24,
			"type":"SCALAR"
		},
		{
			"bufferView":115,
			"componentType":5126,
			"count":144,
			"max":[
				0.006227373145520687,
				0.5,
				0.5
			],
			"min":[
				-0.1407044529914856,
				-0.5,
				-0.5
			],
			"type":"VEC3"
		},
		{
			"bufferView":116,
			"componentType":5126,
			"count":144,
			"type":"VEC3"
		},
		{
			"bufferView":117,
			"componentType":5126,
			"count":144,
			"type":"VEC2"
		},
		{
			"bufferView":118,
			"componentType":5123,
			"count":216,
			"type":"SCALAR"
		},
		{
			"bufferView":119,
			"componentType":5126,
			"count":144,
			"max":[
				0.0009999731555581093,
				0.5,
				0.5
			],
			"min":[
				-0.14070439338684082,
				-0.5,
				-0.5000001192092896
			],
			"type":"VEC3"
		},
		{
			"bufferView":120,
			"componentType":5126,
			"count":144,
			"type":"VEC3"
		},
		{
			"bufferView":121,
			"componentType":5126,
			"count":144,
			"type":"VEC2"
		},
		{
			"bufferView":122,
			"componentType":5123,
			"count":216,
			"type":"SCALAR"
		},
		{
			"bufferView":123,
			"componentType":5126,
			"count":5,
			"max":[
				0.5,
				0,
				0.20000000298023224
			],
			"min":[
				-0.20000003278255463,
				0,
				-0.5
			],
			"type":"VEC3"
		},
		{
			"bufferView":124,
			"componentType":5126,
			"count":5,
			"type":"VEC3"
		},
		{
			"bufferView":125,
			"componentType":5126,
			"count":5,
			"type":"VEC2"
		},
		{
			"bufferView":126,
			"componentType":5123,
			"count":9,
			"type":"SCALAR"
		},
		{
			"bufferView":127,
			"componentType":5126,
			"count":4,
			"max":[
				0.5,
				0,
				0.5
			],
			"min":[
				-0.20000000298023224,
				0,
				-0.5
			],
			"type":"VEC3"
		},
		{
			"bufferView":128,
			"componentType":5126,
			"count":4,
			"type":"VEC3"
		},
		{
			"bufferView":129,
			"componentType":5126,
			"count":4,
			"type":"VEC2"
		},
		{
			"bufferView":130,
			"componentType":5123,
			"count":6,
			"type":"SCALAR"
		},
		{
			"bufferView":131,
			"componentType":5126,
			"count":8,
			"max":[
				0,
				0.5,
				0.5
			],
			"min":[
				-0.20000000298023224,
				0,
				-0.5
			],
			"type":"VEC3"
		},
		{
			"bufferView":132,
			"componentType":5126,
			"count":8,
			"type":"VEC3"
		},
		{
			"bufferView":133,
			"componentType":5126,
			"count":8,
			"type":"VEC2"
		},
		{
			"bufferView":134,
			"componentType":5126,
			"count":5,
			"max":[
				0.5,
				0,
				0.5
			],
			"min":[
				-0.5,
				0,
				-0.5
			],
			"type":"VEC3"
		},
		{
			"bufferView":135,
			"componentType":5126,
			"count":5,
			"type":"VEC3"
		},
		{
			"bufferView":136,
			"componentType":5126,
			"count":5,
			"type":"VEC2"
		},
		{
			"bufferView":137,
			"componentType":5123,
			"count":9,
			"type":"SCALAR"
		},
		{
			"bufferView":138,
			"componentType":5126,
			"count":8,
			"max":[
				0,
				0,
				0.5
			],
			"min":[
				-0.20000000298023224,
				-0.5,
				-0.5
			],
			"type":"VEC3"
		},
		{
			"bufferView":139,
			"componentType":5126,
			"count":8,
			"type":"VEC3"
		},
		{
			"bufferView":140,
			"componentType":5126,
			"count":8,
			"type":"VEC2"
		},
		{
			"bufferView":141,
			"componentType":5126,
			"count":16,
			"max":[
				0.5,
				0.5,
				0.1250002384185791
			],
			"min":[
				-0.5,
				-0.5,
				-0.12500029802322388
			],
			"type":"VEC3"
		},
		{
			"bufferView":142,
			"componentType":5126,
			"count":16,
			"type":"VEC3"
		},
		{
			"bufferView":143,
			"componentType":5126,
			"count":16,
			"type":"VEC2"
		},
		{
			"bufferView":144,
			"componentType":5123,
			"count":24,
			"type":"SCALAR"
		},
		{
			"bufferView":145,
			"componentType":5126,
			"count":34,
			"max":[
				0.5,
				0.320000022649765,
				0.5000002384185791
			],
			"min":[
				-0.5,
				0,
				-0.5
			],
			"type":"VEC3"
		},
		{
			"bufferView":146,
			"componentType":5126,
			"count":34,
			"type":"VEC3"
		},
		{
			"bufferView":147,
			"componentType":5126,
			"count":34,
			"type":"VEC2"
		},
		{
			"bufferView":148,
			"componentType":5123,
			"count":48,
			"type":"SCALAR"
		},
		{
			"bufferView":149,
			"componentType":5126,
			"count":44,
			"max":[
				0.5000000596046448,
				0.5,
				0.5
			],
			"min":[
				-0.5000000596046448,
				0,
				-0.5
			],
			"type":"VEC3"
		},
		{
			"bufferView":150,
			"componentType":5126,
			"count":44,
			"type":"VEC3"
		},
		{
			"bufferView":151,
			"componentType":5126,
			"count":44,
			"type":"VEC2"
		},
		{
			"bufferView":152,
			"componentType":5123,
			"count":66,
			"type":"SCALAR"
		}
	],
	"bufferViews":[
		{
			"buffer":0,
			"byteLength":96,
			"byteOffset":0,
			"target":34962
		},
		{
			"buffer":0,
			"byteLength":96,
			"byteOffset":96,
			"target":34962
		},
		{
			"buffer":0,
			"byteLength":64,
			"byteOffset":192,
			"target":34962
		},
		{
			"buffer":0,
			"byteLength":24,
			"byteOffset":256,
			"target":34963
		},
		{
			"buffer":0,
			"byteLength":48,
			"byteOffset":280,
			"target":34962
		},
		{
			"buffer":0,
			"byteLength":48,
			"byteOffset":328,
			"target":34962
		},
		{
			"buffer":0,
			"byteLength":32,
			"byteOffset":376,
			"target":34962
		},
		{
			"buffer":0,
			"byteLength":12,
			"byteOffset":408,
			"target":34963
		},
		{
			"buffer":0,
			"byteLength":144,
			"byteOffset":420,
			"target":34962
		},
		{
			"buffer":0,
			"byteLength":144,
			"byteOffset":564,
			"target":34962
		},
		{
			"buffer":0,
			"byteLength":96,
			"byteOffset":708,
			"target":34962
		},
		{
			"buffer":0,
			"byteLength":36,
			"byteOffset":804,
			"target":34963
		},
		{
			"buffer":0,
			"byteLength":288,
			"byteOffset":840,
			"target":34962
		},
		{
			"buffer":0,
			"byteLength":288,
			"byteOffset":1128,
			"target":34962
		},
		{
			"buffer":0,
			"byteLength":192,
			"byteOffset":1416,
			"target":34962
		},
		{
			"buffer":0,
			"byteLength":72,
			"byteOffset":1608,
			"target":34963
		},
		{
			"buffer":0,
			"byteLength":168,
			"byteOffset":1680,
			"target":34962
		},
		{
			"buffer":0,
			"byteLength":168,
			"byteOffset":1848,
			"target":34962
		},
		{
			"buffer":0,
			"byteLength":112,
			"byteOffset":2016,
			"target":34962
		},
		{
			"buffer":0,
			"byteLength":36,
			"byteOffset":2128,
			"target":34963
		},
		{
			"buffer":0,
			"byteLength":144,
			"byteOffset":2164,
			"target":34962
		},
		{
			"buffer":0,
			"byteLength":144,
			"byteOffset":2308,
			"target":34962
		},
		{
			"buffer":0,
			"byteLength":96,
			"byteOffset":2452,
			"target":34962
		},
		{
			"buffer":0,
			"byteLength":36,
			"byteOffset":2548,
			"target":34963
		},
		{
			"buffer":0,
			"byteLength":96,
			"byteOffset":2584,
			"target":34962
		},
		{
			"buffer":0,
			"byteLength":96,
			"byteOffset":2680,
			"target":34962
		},
		{
			"buffer":0,
			"byteLength":64,
			"byteOffset":2776,
			"target":34962
		},
		{
			"buffer":0,
			"byteLength":24,
			"byteOffset":2840,
			"target":34963
		},
		{
			"buffer":0,
			"byteLength":384,
			"byteOffset":2864,
			"target":34962
		},
		{
			"buffer":0,
			"byteLength":384,
			"byteOffset":3248,
			"target":34962
		},
		{
			"buffer":0,
			"byteLength":256,
			"byteOffset":3632,
			"target":34962
		},
		{
			"buffer":0,
			"byteLength":96,
			"byteOffset":3888,
			"target":34963
		},
		{
			"buffer":0,
			"byteLength":1488,
			"byteOffset":3984,
			"target":34962
		},
		{
			"buffer":0,
			"byteLength":1488,
			"byteOffset":5472,
			"target":34962
		},
		{
			"buffer":0,
			"byteLength":992,
			"byteOffset":6960,
			"target":34962
		},
		{
			"buffer":0,
			"byteLength":372,
			"byteOffset":7952,
			"target":34963
		},
		{
			"buffer":0,
			"byteLength":48,
			"byteOffset":8324,
			"target":34962
		},
		{
			"buffer":0,
			"byteLength":48,
			"byteOffset":8372,
			"target":34962
		},
		{
			"buffer":0,
			"byteLength":32,
			"byteOffset":8420,
			"target":34962
		},
		{
			"buffer":0,
			"byteLength":12,
			"byteOffset":8452,
			"target":34963
		},
		{
			"buffer":0,
			"byteLength":48,
			"byteOffset":8464,
			"target":34962
		},
		{
			"buffer":0,
			"byteLength":48,
			"byteOffset":8512,
			"target":34962
		},
		{
			"buffer":0,
			"byteLength":32,
			"byteOffset":8560,
			"target":34962
		},
		{
			"buffer":0,
			"byteLength":48,
			"byteOffset":8592,
			"target":34962
		},
		{
			"buffer":0,
			"byteLength":48,
			"byteOffset":8640,
			"target":34962
		},
		{
			"buffer":0,
			"byteLength":32,
			"byteOffset":8688,
			"target":34962
		},
		{
			"buffer":0,
			"byteLength":48,
			"byteOffset":8720,
			"target":34962
		},
		{
			"buffer":0,
			"byteLength":48,
			"byteOffset":8768,
			"target":34962
		},
		{
			"buffer":0,
			"byteLength":32,
			"byteOffset":8816,
			"target":34962
		},
		{
			"buffer":0,
			"byteLength":2112,
			"byteOffset":8848,
			"target":34962
		},
		{
			"buffer":0,
			"byteLength":2112,
			"byteOffset":10960,
			"target":34962
		},
		{
			"buffer":0,
			"byteLength":1408,
			"byteOffset":13072,
			"target":34962
		},
		{
			"buffer":0,
			"byteLength":540,
			"byteOffset":14480,
			"target":34963
		},
		{
			"buffer":0,
			"byteLength":288,
			"byteOffset":15020,
			"target":34962
		},
		{
			"buffer":0,
			"byteLength":288,
			"byteOffset":15308,
			"target":34962
		},
		{
			"buffer":0,
			"byteLength":192,
			"byteOffset":15596,
			"target":34962
		},
		{
			"buffer":0,
			"byteLength":72,
			"byteOffset":15788,
			"target":34963
		},
		{
			"buffer":0,
			"byteLength":168,
			"byteOffset":15860,
			"target":34962
		},
		{
			"buffer":0,
			"byteLength":168,
			"byteOffset":16028,
			"target":34962
		},
		{
			"buffer":0,
			"byteLength":112,
			"byteOffset":16196,
			"target":34962
		},
		{
			"buffer":0,
			"byteLength":36,
			"byteOffset":16308,
			"target":34963
		},
		{
			"buffer":0,
			"byteLength":96,
			"byteOffset":16344,
			"target":34962
		},
		{
			"buffer":0,
			"byteLength":96,
			"byteOffset":16440,
			"target":34962
		},
		{
			"buffer":0,
			"byteLength":64,
			"byteOffset":16536,
			"target":34962
		},
		{
			"buffer":0,
			"byteLength":288,
			"byteOffset":16600,
			"target":34962
		},
		{
			"buffer":0,
			"byteLength":288,
			"byteOffset":16888,
			"target":34962
		},
		{
			"buffer":0,
			"byteLength":192,
			"byteOffset":17176,
			"target":34962
		},
		{
			"buffer":0,
			"byteLength":168,
			"byteOffset":17368,
			"target":34962
		},
		{
			"buffer":0,
			"byteLength":168,
			"byteOffset":17536,
			"target":34962
		},
		{
			"buffer":0,
			"byteLength":112,
			"byteOffset":17704,
			"target":34962
		},
		{
			"buffer":0,
			"byteLength":96,
			"byteOffset":17816,
			"target":34962
		},
		{
			"buffer":0,
			"byteLength":96,
			"byteOffset":17912,
			"target":34962
		},
		{
			"buffer":0,
			"byteLength":64,
			"byteOffset":18008,
			"target":34962
		},
		{
			"buffer":0,
			"byteLength":288,
			"byteOffset":18072,
			"target":34962
		},
		{
			"buffer":0,
			"byteLength":288,
			"byteOffset":18360,
			"target":34962
		},
		{
			"buffer":0,
			"byteLength":192,
			"byteOffset":18648,
			"target":34962
		},
		{
			"buffer":0,
			"byteLength":168,
			"byteOffset":18840,
			"target":34962
		},
		{
			"buffer":0,
			"byteLength":168,
			"byteOffset":19008,
			"target":34962
		},
		{
			"buffer":0,
			"byteLength":112,
			"byteOffset":19176,
			"target":34962
		},
		{
			"buffer":0,
			"byteLength":48,
			"byteOffset":19288,
			"target":34962
		},
		{
			"buffer":0,
			"byteLength":48,
			"byteOffset":19336,
			"target":34962
		},
		{
			"buffer":0,
			"byteLength":32,
			"byteOffset":19384,
			"target":34962
		},
		{
			"buffer":0,
			"byteLength":48,
			"byteOffset":19416,
			"target":34962
		},
		{
			"buffer":0,
			"byteLength":48,
			"byteOffset":19464,
			"target":34962
		},
		{
			"buffer":0,
			"byteLength":32,
			"byteOffset":19512,
			"target":34962
		},
		{
			"buffer":0,
			"byteLength":48,
			"byteOffset":19544,
			"target":34962
		},
		{
			"buffer":0,
			"byteLength":48,
			"byteOffset":19592,
			"target":34962
		},
		{
			"buffer":0,
			"byteLength":32,
			"byteOffset":19640,
			"target":34962
		},
		{
			"buffer":0,
			"byteLength":48,
			"byteOffset":19672,
			"target":34962
		},
		{
			"buffer":0,
			"byteLength":48,
			"byteOffset":19720,
			"target":34962
		},
		{
			"buffer":0,
			"byteLength":32,
			"byteOffset":19768,
			"target":34962
		},
		{
			"buffer":0,
			"byteLength":480,
			"byteOffset":19800,
			"target":34962
		},
		{
			"buffer":0,
			"byteLength":480,
			"byteOffset":20280,
			"target":34962
		},
		{
			"buffer":0,
			"byteLength":320,
			"byteOffset":20760,
			"target":34962
		},
		{
			"buffer":0,
			"byteLength":120,
			"byteOffset":21080,
			"target":34963
		},
		{
			"buffer":0,
			"byteLength":696,
			"byteOffset":21200,
			"target":34962
		},
		{
			"buffer":0,
			"byteLength":696,
			"byteOffset":21896,
			"target":34962
		},
		{
			"buffer":0,
			"byteLength":464,
			"byteOffset":22592,
			"target":34962
		},
		{
			"buffer":0,
			"byteLength":180,
			"byteOffset":23056,
			"target":34963
		},
		{
			"buffer":0,
			"byteLength":696,
			"byteOffset":23236,
			"target":34962
		},
		{
			"buffer":0,
			"byteLength":696,
			"byteOffset":23932,
			"target":34962
		},
		{
			"buffer":0,
			"byteLength":464,
			"byteOffset":24628,
			"target":34962
		},
		{
			"buffer":0,
			"byteLength":180,
			"byteOffset":25092,
			"target":34963
		},
		{
			"buffer":0,
			"byteLength":1104,
			"byteOffset":25272,
			"target":34962
		},
		{
			"buffer":0,
			"byteLength":1104,
			"byteOffset":26376,
			"target":34962
		},
		{
			"buffer":0,
			"byteLength":736,
			"byteOffset":27480,
			"target":34962
		},
		{
			"buffer":0,
			"byteLength":396,
			"byteOffset":28216,
			"target":34963
		},
		{
			"buffer":0,
			"byteLength":4344,
			"byteOffset":28612,
			"target":34962
		},
		{
			"buffer":0,
			"byteLength":4344,
			"byteOffset":32956,
			"target":34962
		},
		{
			"buffer":0,
			"byteLength":2896,
			"byteOffset":37300,
			"target":34962
		},
		{
			"buffer":0,
			"byteLength":1092,
			"byteOffset":40196,
			"target":34963
		},
		{
			"buffer":0,
			"byteLength":192,
			"byteOffset":41288,
			"target":34962
		},
		{
			"buffer":0,
			"byteLength":192,
			"byteOffset":41480,
			"target":34962
		},
		{
			"buffer":0,
			"byteLength":128,
			"byteOffset":41672,
			"target":34962
		},
		{
			"buffer":0,
			"byteLength":48,
			"byteOffset":41800,
			"target":34963
		},
		{
			"buffer":0,
			"byteLength":1728,
			"byteOffset":41848,
			"target":34962
		},
		{
			"buffer":0,
			"byteLength":1728,
			"byteOffset":43576,
			"target":34962
		},
		{
			"buffer":0,
			"byteLength":1152,
			"byteOffset":45304,
			"target":34962
		},
		{
			"buffer":0,
			"byteLength":432,
			"byteOffset":46456,
			"target":34963
		},
		{
			"buffer":0,
			"byteLength":1728,
			"byteOffset":46888,
			"target":34962
		},
		{
			"buffer":0,
			"byteLength":1728,
			"byteOffset":48616,
			"target":34962
		},
		{
			"buffer":0,
			"byteLength":1152,
			"byteOffset":50344,
			"target":34962
		},
		{
			"buffer":0,
			"byteLength":432,
			"byteOffset":51496,
			"target":34963
		},
		{
			"buffer":0,
			"byteLength":60,
			"byteOffset":51928,
			"target":34962
		},
		{
			"buffer":0,
			"byteLength":60,
			"byteOffset":51988,
			"target":34962
		},
		{
			"buffer":0,
			"byteLength":40,
			"byteOffset":52048,
			"target":34962
		},
		{
			"buffer":0,
			"byteLength":18,
			"byteOffset":52088,
			"target":34963
		},
		{
			"buffer":0,
			"byteLength":48,
			"byteOffset":52108,
			"target":34962
		},
		{
			"buffer":0,
			"byteLength":48,
			"byteOffset":52156,
			"target":34962
		},
		{
			"buffer":0,
			"byteLength":32,
			"byteOffset":52204,
			"target":34962
		},
		{
			"buffer":0,
			"byteLength":12,
			"byteOffset":52236,
			"target":34963
		},
		{
			"buffer":0,
			"byteLength":96,
			"byteOffset":52248,
			"target":34962
		},
		{
			"buffer":0,
			"byteLength":96,
			"byteOffset":52344,
			"target":34962
		},
		{
			"buffer":0,
			"byteLength":64,
			"byteOffset":52440,
			"target":34962
		},
		{
			"buffer":0,
			"byteLength":60,
			"byteOffset":52504,
			"target":34962
		},
		{
			"buffer":0,
			"byteLength":60,
			"byteOffset":52564,
			"target":34962
		},
		{
			"buffer":0,
			"byteLength":40,
			"byteOffset":52624,
			"target":34962
		},
		{
			"buffer":0,
			"byteLength":18,
			"byteOffset":52664,
			"target":34963
		},
		{
			"buffer":0,
			"byteLength":96,
			"byteOffset":52684,
			"target":34962
		},
		{
			"buffer":0,
			"byteLength":96,
			"byteOffset":52780,
			"target":34962
		},
		{
			"buffer":0,
			"byteLength":64,
			"byteOffset":52876,
			"target":34962
		},
		{
			"buffer":0,
			"byteLength":192,
			"byteOffset":52940,
			"target":34962
		},
		{
			"buffer":0,
			"byteLength":192,
			"byteOffset":53132,
			"target":34962
		},
		{
			"buffer":0,
			"byteLength":128,
			"byteOffset":53324,
			"target":34962
		},
		{
			"buffer":0,
			"byteLength":48,
			"byteOffset":53452,
			"target":34963
		},
		{
			"buffer":0,
			"byteLength":408,
			"byteOffset":53500,
			"target":34962
		},
		{
			"buffer":0,
			"byteLength":408,
			"byteOffset":53908,
			"target":34962
		},
		{
			"buffer":0,
			"byteLength":272,
			"byteOffset":54316,
			"target":34962
		},
		{
			"buffer":0,
			"byteLength":96,
			"byteOffset":54588,
			"target":34963
		},
		{
			"buffer":0,
			"byteLength":528,
			"byteOffset":54684,
			"target":34962
		},
		{
			"buffer":0,
			"byteLength":528,
			"byteOffset":55212,
			"target":34962
		},
		{
			"buffer":0,
			"byteLength":352,
			"byteOffset":55740,
			"target":34962
		},
		{
			"buffer":0,
			"byteLength":132,
			"byteOffset":56092,
			"target":34963
		}
	],
	"samplers":[
		{
			"magFilter":9728,
			"minFilter":9984
		},
		{
			"magFilter":9729,
			"minFilter":9987
		}
	],
	"buffers":[
		{
			"byteLength":56224,
			"uri":"Tiles.bin"
		}
	]
}
