{
	"asset":{
		"generator":"Khronos glTF Blender I/O v3.5.30",
		"version":"2.0"
	},
	"scene":0,
	"scenes":[
		{
			"name":"Scene",
			"nodes":[
				8
			]
		}
	],
	"nodes":[
		{
			"name":"Base",
			"rotation":[
				0.7071067690849304,
				-1.376787679419067e-07,
				-1.376787679419067e-07,
				0.7071067690849304
			]
		},
		{
			"name":"Hand.004",
			"rotation":[
				-0.17194101214408875,
				-2.632123994317226e-07,
				1.154660580482414e-07,
				0.9851072430610657
			],
			"scale":[
				1,
				1,
				0.9999999403953552
			]
		},
		{
			"name":"Hand.001",
			"rotation":[
				-0.03256962075829506,
				-0.18660198152065277,
				-0.16882818937301636,
				0.9672724604606628
			],
			"scale":[
				0.9999999403953552,
				0.9999999403953552,
				1
			],
			"translation":[
				9.734524297755343e-08,
				-5.960464477539063e-08,
				9.734517192327985e-08
			]
		},
		{
			"name":"Hand.002",
			"rotation":[
				0.15960226953029633,
				-0.3664475977420807,
				-0.0639600157737732,
				0.9144136905670166
			],
			"scale":[
				1,
				1.0000001192092896,
				1
			],
			"translation":[
				6.182643237434213e-14,
				-1.1920928955078125e-07,
				1.9469041490083328e-07
			]
		},
		{
			"name":"Hand.003",
			"rotation":[
				0.09303425252437592,
				-0.5330236554145813,
				0.14459724724292755,
				0.8284456133842468
			],
			"scale":[
				1,
				0.9999998211860657,
				0.9999998807907104
			],
			"translation":[
				-9.734518613413456e-08,
				-1.7881393432617188e-07,
				9.734520745041664e-08
			]
		},
		{
			"children":[
				1,
				2,
				3,
				4
			],
			"name":"Head",
			"rotation":[
				0.7071067690849304,
				-1.376787679419067e-07,
				-1.376787679419067e-07,
				0.7071067690849304
			],
			"translation":[
				-2.220446049250313e-16,
				0,
				0.7245165705680847
			]
		},
		{
			"name":"neutral_bone",
			"rotation":[
				-0.7071067690849304,
				0,
				0,
				0.7071067690849304
			]
		},
		{
			"mesh":0,
			"name":"SDriver",
			"skin":0
		},
		{
			"children":[
				7,
				0,
				5,
				6
			],
			"name":"Armature"
		}
	],
	"animations":[
		{
			"channels":[
				{
					"sampler":0,
					"target":{
						"node":0,
						"path":"translation"
					}
				},
				{
					"sampler":1,
					"target":{
						"node":0,
						"path":"rotation"
					}
				},
				{
					"sampler":2,
					"target":{
						"node":0,
						"path":"scale"
					}
				},
				{
					"sampler":3,
					"target":{
						"node":5,
						"path":"translation"
					}
				},
				{
					"sampler":4,
					"target":{
						"node":5,
						"path":"rotation"
					}
				},
				{
					"sampler":5,
					"target":{
						"node":5,
						"path":"scale"
					}
				},
				{
					"sampler":6,
					"target":{
						"node":1,
						"path":"translation"
					}
				},
				{
					"sampler":7,
					"target":{
						"node":1,
						"path":"rotation"
					}
				},
				{
					"sampler":8,
					"target":{
						"node":1,
						"path":"scale"
					}
				},
				{
					"sampler":9,
					"target":{
						"node":2,
						"path":"translation"
					}
				},
				{
					"sampler":10,
					"target":{
						"node":2,
						"path":"rotation"
					}
				},
				{
					"sampler":11,
					"target":{
						"node":2,
						"path":"scale"
					}
				},
				{
					"sampler":12,
					"target":{
						"node":3,
						"path":"translation"
					}
				},
				{
					"sampler":13,
					"target":{
						"node":3,
						"path":"rotation"
					}
				},
				{
					"sampler":14,
					"target":{
						"node":3,
						"path":"scale"
					}
				},
				{
					"sampler":15,
					"target":{
						"node":4,
						"path":"translation"
					}
				},
				{
					"sampler":16,
					"target":{
						"node":4,
						"path":"rotation"
					}
				},
				{
					"sampler":17,
					"target":{
						"node":4,
						"path":"scale"
					}
				}
			],
			"name":"ArmatureAction",
			"samplers":[
				{
					"input":7,
					"interpolation":"LINEAR",
					"output":8
				},
				{
					"input":7,
					"interpolation":"LINEAR",
					"output":9
				},
				{
					"input":7,
					"interpolation":"LINEAR",
					"output":10
				},
				{
					"input":7,
					"interpolation":"LINEAR",
					"output":11
				},
				{
					"input":7,
					"interpolation":"LINEAR",
					"output":12
				},
				{
					"input":7,
					"interpolation":"LINEAR",
					"output":13
				},
				{
					"input":7,
					"interpolation":"LINEAR",
					"output":14
				},
				{
					"input":7,
					"interpolation":"LINEAR",
					"output":15
				},
				{
					"input":7,
					"interpolation":"LINEAR",
					"output":16
				},
				{
					"input":7,
					"interpolation":"LINEAR",
					"output":17
				},
				{
					"input":7,
					"interpolation":"LINEAR",
					"output":18
				},
				{
					"input":7,
					"interpolation":"LINEAR",
					"output":19
				},
				{
					"input":7,
					"interpolation":"LINEAR",
					"output":20
				},
				{
					"input":7,
					"interpolation":"LINEAR",
					"output":21
				},
				{
					"input":7,
					"interpolation":"LINEAR",
					"output":22
				},
				{
					"input":7,
					"interpolation":"LINEAR",
					"output":23
				},
				{
					"input":7,
					"interpolation":"LINEAR",
					"output":24
				},
				{
					"input":7,
					"interpolation":"LINEAR",
					"output":25
				}
			]
		}
	],
	"materials":[
		{
			"doubleSided":true,
			"emissiveFactor":[
				1,
				1,
				1
			],
			"emissiveTexture":{
				"index":0
			},
			"name":"SDriverMaterial",
			"pbrMetallicRoughness":{
				"baseColorTexture":{
					"index":1
				},
				"metallicFactor":0,
				"roughnessFactor":0.5
			}
		}
	],
	"meshes":[
		{
			"name":"Cylinder",
			"primitives":[
				{
					"attributes":{
						"POSITION":0,
						"TEXCOORD_0":1,
						"NORMAL":2,
						"JOINTS_0":3,
						"WEIGHTS_0":4
					},
					"indices":5,
					"material":0
				}
			]
		}
	],
	"textures":[
		{
			"sampler":0,
			"source":0
		},
		{
			"sampler":1,
			"source":1
		}
	],
	"images":[
		{
			"bufferView":6,
			"mimeType":"image/png",
			"name":"SDriverLight"
		},
		{
			"bufferView":7,
			"mimeType":"image/png",
			"name":"SDriverColor"
		}
	],
	"skins":[
		{
			"inverseBindMatrices":6,
			"joints":[
				0,
				5,
				1,
				2,
				3,
				4,
				6
			],
			"name":"Armature"
		}
	],
	"accessors":[
		{
			"bufferView":0,
			"componentType":5126,
			"count":580,
			"max":[
				0.1854819655418396,
				0.18548186123371124,
				1.1301300525665283
			],
			"min":[
				-0.1854819804430008,
				-0.18548208475112915,
				-0.8067046999931335
			],
			"type":"VEC3"
		},
		{
			"bufferView":1,
			"componentType":5126,
			"count":580,
			"type":"VEC2"
		},
		{
			"bufferView":2,
			"componentType":5126,
			"count":580,
			"type":"VEC3"
		},
		{
			"bufferView":3,
			"componentType":5121,
			"count":580,
			"type":"VEC4"
		},
		{
			"bufferView":4,
			"componentType":5126,
			"count":580,
			"type":"VEC4"
		},
		{
			"bufferView":5,
			"componentType":5123,
			"count":906,
			"type":"SCALAR"
		},
		{
			"bufferView":8,
			"componentType":5126,
			"count":7,
			"type":"MAT4"
		},
		{
			"bufferView":9,
			"componentType":5126,
			"count":26,
			"max":[
				1.0416666666666667
			],
			"min":[
				0
			],
			"type":"SCALAR"
		},
		{
			"bufferView":10,
			"componentType":5126,
			"count":26,
			"type":"VEC3"
		},
		{
			"bufferView":11,
			"componentType":5126,
			"count":26,
			"type":"VEC4"
		},
		{
			"bufferView":12,
			"componentType":5126,
			"count":26,
			"type":"VEC3"
		},
		{
			"bufferView":13,
			"componentType":5126,
			"count":26,
			"type":"VEC3"
		},
		{
			"bufferView":14,
			"componentType":5126,
			"count":26,
			"type":"VEC4"
		},
		{
			"bufferView":15,
			"componentType":5126,
			"count":26,
			"type":"VEC3"
		},
		{
			"bufferView":16,
			"componentType":5126,
			"count":26,
			"type":"VEC3"
		},
		{
			"bufferView":17,
			"componentType":5126,
			"count":26,
			"type":"VEC4"
		},
		{
			"bufferView":18,
			"componentType":5126,
			"count":26,
			"type":"VEC3"
		},
		{
			"bufferView":19,
			"componentType":5126,
			"count":26,
			"type":"VEC3"
		},
		{
			"bufferView":20,
			"componentType":5126,
			"count":26,
			"type":"VEC4"
		},
		{
			"bufferView":21,
			"componentType":5126,
			"count":26,
			"type":"VEC3"
		},
		{
			"bufferView":22,
			"componentType":5126,
			"count":26,
			"type":"VEC3"
		},
		{
			"bufferView":23,
			"componentType":5126,
			"count":26,
			"type":"VEC4"
		},
		{
			"bufferView":24,
			"componentType":5126,
			"count":26,
			"type":"VEC3"
		},
		{
			"bufferView":25,
			"componentType":5126,
			"count":26,
			"type":"VEC3"
		},
		{
			"bufferView":26,
			"componentType":5126,
			"count":26,
			"type":"VEC4"
		},
		{
			"bufferView":27,
			"componentType":5126,
			"count":26,
			"type":"VEC3"
		}
	],
	"bufferViews":[
		{
			"buffer":0,
			"byteLength":6960,
			"byteOffset":0,
			"target":34962
		},
		{
			"buffer":0,
			"byteLength":4640,
			"byteOffset":6960,
			"target":34962
		},
		{
			"buffer":0,
			"byteLength":6960,
			"byteOffset":11600,
			"target":34962
		},
		{
			"buffer":0,
			"byteLength":2320,
			"byteOffset":18560,
			"target":34962
		},
		{
			"buffer":0,
			"byteLength":9280,
			"byteOffset":20880,
			"target":34962
		},
		{
			"buffer":0,
			"byteLength":1812,
			"byteOffset":30160,
			"target":34963
		},
		{
			"buffer":0,
			"byteLength":248,
			"byteOffset":31972
		},
		{
			"buffer":0,
			"byteLength":277,
			"byteOffset":32220
		},
		{
			"buffer":0,
			"byteLength":448,
			"byteOffset":32500
		},
		{
			"buffer":0,
			"byteLength":104,
			"byteOffset":32948
		},
		{
			"buffer":0,
			"byteLength":312,
			"byteOffset":33052
		},
		{
			"buffer":0,
			"byteLength":416,
			"byteOffset":33364
		},
		{
			"buffer":0,
			"byteLength":312,
			"byteOffset":33780
		},
		{
			"buffer":0,
			"byteLength":312,
			"byteOffset":34092
		},
		{
			"buffer":0,
			"byteLength":416,
			"byteOffset":34404
		},
		{
			"buffer":0,
			"byteLength":312,
			"byteOffset":34820
		},
		{
			"buffer":0,
			"byteLength":312,
			"byteOffset":35132
		},
		{
			"buffer":0,
			"byteLength":416,
			"byteOffset":35444
		},
		{
			"buffer":0,
			"byteLength":312,
			"byteOffset":35860
		},
		{
			"buffer":0,
			"byteLength":312,
			"byteOffset":36172
		},
		{
			"buffer":0,
			"byteLength":416,
			"byteOffset":36484
		},
		{
			"buffer":0,
			"byteLength":312,
			"byteOffset":36900
		},
		{
			"buffer":0,
			"byteLength":312,
			"byteOffset":37212
		},
		{
			"buffer":0,
			"byteLength":416,
			"byteOffset":37524
		},
		{
			"buffer":0,
			"byteLength":312,
			"byteOffset":37940
		},
		{
			"buffer":0,
			"byteLength":312,
			"byteOffset":38252
		},
		{
			"buffer":0,
			"byteLength":416,
			"byteOffset":38564
		},
		{
			"buffer":0,
			"byteLength":312,
			"byteOffset":38980
		}
	],
	"samplers":[
		{
			"magFilter":9729,
			"minFilter":9987
		},
		{
			"magFilter":9728,
			"minFilter":9984
		}
	],
	"buffers":[
		{
			"byteLength":39292,
			"uri":"data:application/octet-stream;base64,"
		}
	]
}
