{
	"asset":{
		"generator":"Khronos glTF Blender I/O v3.5.30",
		"version":"2.0"
	},
	"scene":0,
	"scenes":[
		{
			"name":"Scene",
			"nodes":[
				0,
				1,
				2,
				3,
				4,
				5,
				6,
				7,
				8
			]
		}
	],
	"nodes":[
		{
			"mesh":0,
			"name":"Tube.001",
			"translation":[
				0,
				0,
				-2
			]
		},
		{
			"mesh":1,
			"name":"Tube.002"
		},
		{
			"mesh":2,
			"name":"Tube.003",
			"translation":[
				0,
				0,
				3
			]
		},
		{
			"mesh":3,
			"name":"Tube.004",
			"translation":[
				0,
				0,
				5
			]
		},
		{
			"mesh":4,
			"name":"Tube.005",
			"translation":[
				0,
				0,
				7
			]
		},
		{
			"mesh":5,
			"name":"Tube.006",
			"translation":[
				0,
				0,
				9
			]
		},
		{
			"mesh":6,
			"name":"Tube.007",
			"translation":[
				0,
				0,
				11
			]
		},
		{
			"mesh":7,
			"name":"Tube.008",
			"translation":[
				0,
				0,
				13
			]
		},
		{
			"mesh":8,
			"name":"Tube.009",
			"translation":[
				0,
				0,
				15
			]
		}
	],
	"materials":[
		{
			"doubleSided":true,
			"name":"TubeMaterial",
			"pbrMetallicRoughness":{
				"baseColorTexture":{
					"index":0
				},
				"metallicFactor":0,
				"roughnessFactor":0.5
			}
		},
		{
			"doubleSided":true,
			"name":"TubeMaterial.001",
			"pbrMetallicRoughness":{
				"baseColorTexture":{
					"index":1
				},
				"metallicFactor":0,
				"roughnessFactor":0.5
			}
		}
	],
	"meshes":[
		{
			"name":"Tube.001",
			"primitives":[
				{
					"attributes":{
						"POSITION":0,
						"TEXCOORD_0":1,
						"NORMAL":2
					},
					"indices":3,
					"material":0
				}
			]
		},
		{
			"name":"Tube.002",
			"primitives":[
				{
					"attributes":{
						"POSITION":4,
						"TEXCOORD_0":5,
						"NORMAL":6
					},
					"indices":7,
					"material":0
				}
			]
		},
		{
			"name":"Tube.004",
			"primitives":[
				{
					"attributes":{
						"POSITION":8,
						"TEXCOORD_0":9,
						"NORMAL":10
					},
					"indices":11,
					"material":0
				}
			]
		},
		{
			"name":"Tube.005",
			"primitives":[
				{
					"attributes":{
						"POSITION":12,
						"TEXCOORD_0":13,
						"NORMAL":14
					},
					"indices":15,
					"material":0
				}
			]
		},
		{
			"name":"Tube.006",
			"primitives":[
				{
					"attributes":{
						"POSITION":16,
						"TEXCOORD_0":17,
						"NORMAL":18
					},
					"indices":19,
					"material":1
				}
			]
		},
		{
			"name":"Tube.003",
			"primitives":[
				{
					"attributes":{
						"POSITION":20,
						"TEXCOORD_0":21,
						"NORMAL":22
					},
					"indices":23,
					"material":0
				}
			]
		},
		{
			"name":"Tube.007",
			"primitives":[
				{
					"attributes":{
						"POSITION":24,
						"TEXCOORD_0":25,
						"NORMAL":26
					},
					"indices":27,
					"material":0
				}
			]
		},
		{
			"name":"Tube.008",
			"primitives":[
				{
					"attributes":{
						"POSITION":28,
						"TEXCOORD_0":29,
						"NORMAL":30
					},
					"indices":31,
					"material":0
				}
			]
		},
		{
			"name":"Tube.009",
			"primitives":[
				{
					"attributes":{
						"POSITION":32,
						"TEXCOORD_0":33,
						"NORMAL":34
					},
					"indices":35,
					"material":0
				}
			]
		}
	],
	"textures":[
		{
			"sampler":0,
			"source":0
		},
		{
			"sampler":0,
			"source":0
		}
	],
	"images":[
		{
			"bufferView":4,
			"mimeType":"image/png",
			"name":"TubeColor"
		}
	],
	"accessors":[
		{
			"bufferView":0,
			"componentType":5126,
			"count":40,
			"max":[
				0.5000001192092896,
				0.475528359413147,
				0.5000000596046448
			],
			"min":[
				-0.5000001192092896,
				-0.475528359413147,
				-0.5000000596046448
			],
			"type":"VEC3"
		},
		{
			"bufferView":1,
			"componentType":5126,
			"count":40,
			"type":"VEC2"
		},
		{
			"bufferView":2,
			"componentType":5126,
			"count":40,
			"type":"VEC3"
		},
		{
			"bufferView":3,
			"componentType":5123,
			"count":60,
			"type":"SCALAR"
		},
		{
			"bufferView":5,
			"componentType":5126,
			"count":40,
			"max":[
				1.0000001192092896,
				0.475528359413147,
				0.5000000596046448
			],
			"min":[
				-1.0000001192092896,
				-0.475528359413147,
				-0.5000000596046448
			],
			"type":"VEC3"
		},
		{
			"bufferView":6,
			"componentType":5126,
			"count":40,
			"type":"VEC2"
		},
		{
			"bufferView":7,
			"componentType":5126,
			"count":40,
			"type":"VEC3"
		},
		{
			"bufferView":8,
			"componentType":5123,
			"count":60,
			"type":"SCALAR"
		},
		{
			"bufferView":9,
			"componentType":5126,
			"count":184,
			"max":[
				1.0000001192092896,
				0.475528359413147,
				0.5000000596046448
			],
			"min":[
				-1.0000001192092896,
				-0.475528359413147,
				-0.5000000596046448
			],
			"type":"VEC3"
		},
		{
			"bufferView":10,
			"componentType":5126,
			"count":184,
			"type":"VEC2"
		},
		{
			"bufferView":11,
			"componentType":5126,
			"count":184,
			"type":"VEC3"
		},
		{
			"bufferView":12,
			"componentType":5123,
			"count":348,
			"type":"SCALAR"
		},
		{
			"bufferView":13,
			"componentType":5126,
			"count":244,
			"max":[
				1.0000001192092896,
				0.4755282998085022,
				0.4999999701976776
			],
			"min":[
				-1.2674634456634521,
				-1.2610172033309937,
				-0.5457519292831421
			],
			"type":"VEC3"
		},
		{
			"bufferView":14,
			"componentType":5126,
			"count":244,
			"type":"VEC2"
		},
		{
			"bufferView":15,
			"componentType":5126,
			"count":244,
			"type":"VEC3"
		},
		{
			"bufferView":16,
			"componentType":5123,
			"count":384,
			"type":"SCALAR"
		},
		{
			"bufferView":17,
			"componentType":5126,
			"count":282,
			"max":[
				1.399999976158142,
				0.4755282998085022,
				0.5102812051773071
			],
			"min":[
				-1.1145493984222412,
				-0.4755283296108246,
				-0.8964269161224365
			],
			"type":"VEC3"
		},
		{
			"bufferView":18,
			"componentType":5126,
			"count":282,
			"type":"VEC2"
		},
		{
			"bufferView":19,
			"componentType":5126,
			"count":282,
			"type":"VEC3"
		},
		{
			"bufferView":20,
			"componentType":5123,
			"count":468,
			"type":"SCALAR"
		},
		{
			"bufferView":21,
			"componentType":5126,
			"count":206,
			"max":[
				1.0000001192092896,
				0.4755282998085022,
				0.5000000596046448
			],
			"min":[
				-1.223202109336853,
				-0.637999415397644,
				-0.5000000596046448
			],
			"type":"VEC3"
		},
		{
			"bufferView":22,
			"componentType":5126,
			"count":206,
			"type":"VEC2"
		},
		{
			"bufferView":23,
			"componentType":5126,
			"count":206,
			"type":"VEC3"
		},
		{
			"bufferView":24,
			"componentType":5123,
			"count":324,
			"type":"SCALAR"
		},
		{
			"bufferView":25,
			"componentType":5126,
			"count":126,
			"max":[
				1.0000001192092896,
				0.4755282700061798,
				0.507327139377594
			],
			"min":[
				-1.0000001192092896,
				-0.475528359413147,
				-0.5000000596046448
			],
			"type":"VEC3"
		},
		{
			"bufferView":26,
			"componentType":5126,
			"count":126,
			"type":"VEC2"
		},
		{
			"bufferView":27,
			"componentType":5126,
			"count":126,
			"type":"VEC3"
		},
		{
			"bufferView":28,
			"componentType":5123,
			"count":204,
			"type":"SCALAR"
		},
		{
			"bufferView":29,
			"componentType":5126,
			"count":298,
			"max":[
				1.0492753982543945,
				0.47192198038101196,
				0.5205870270729065
			],
			"min":[
				-1.1669788360595703,
				-0.4755283296108246,
				-0.6965103149414062
			],
			"type":"VEC3"
		},
		{
			"bufferView":30,
			"componentType":5126,
			"count":298,
			"type":"VEC2"
		},
		{
			"bufferView":31,
			"componentType":5126,
			"count":298,
			"type":"VEC3"
		},
		{
			"bufferView":32,
			"componentType":5123,
			"count":468,
			"type":"SCALAR"
		},
		{
			"bufferView":33,
			"componentType":5126,
			"count":112,
			"max":[
				1.1920928955078125e-07,
				0.475528359413147,
				0.5000000596046448
			],
			"min":[
				-1.0000001192092896,
				-0.4755282998085022,
				-0.5
			],
			"type":"VEC3"
		},
		{
			"bufferView":34,
			"componentType":5126,
			"count":112,
			"type":"VEC2"
		},
		{
			"bufferView":35,
			"componentType":5126,
			"count":112,
			"type":"VEC3"
		},
		{
			"bufferView":36,
			"componentType":5123,
			"count":204,
			"type":"SCALAR"
		}
	],
	"bufferViews":[
		{
			"buffer":0,
			"byteLength":480,
			"byteOffset":0,
			"target":34962
		},
		{
			"buffer":0,
			"byteLength":320,
			"byteOffset":480,
			"target":34962
		},
		{
			"buffer":0,
			"byteLength":480,
			"byteOffset":800,
			"target":34962
		},
		{
			"buffer":0,
			"byteLength":120,
			"byteOffset":1280,
			"target":34963
		},
		{
			"buffer":0,
			"byteLength":4908,
			"byteOffset":1400
		},
		{
			"buffer":0,
			"byteLength":480,
			"byteOffset":6308,
			"target":34962
		},
		{
			"buffer":0,
			"byteLength":320,
			"byteOffset":6788,
			"target":34962
		},
		{
			"buffer":0,
			"byteLength":480,
			"byteOffset":7108,
			"target":34962
		},
		{
			"buffer":0,
			"byteLength":120,
			"byteOffset":7588,
			"target":34963
		},
		{
			"buffer":0,
			"byteLength":2208,
			"byteOffset":7708,
			"target":34962
		},
		{
			"buffer":0,
			"byteLength":1472,
			"byteOffset":9916,
			"target":34962
		},
		{
			"buffer":0,
			"byteLength":2208,
			"byteOffset":11388,
			"target":34962
		},
		{
			"buffer":0,
			"byteLength":696,
			"byteOffset":13596,
			"target":34963
		},
		{
			"buffer":0,
			"byteLength":2928,
			"byteOffset":14292,
			"target":34962
		},
		{
			"buffer":0,
			"byteLength":1952,
			"byteOffset":17220,
			"target":34962
		},
		{
			"buffer":0,
			"byteLength":2928,
			"byteOffset":19172,
			"target":34962
		},
		{
			"buffer":0,
			"byteLength":768,
			"byteOffset":22100,
			"target":34963
		},
		{
			"buffer":0,
			"byteLength":3384,
			"byteOffset":22868,
			"target":34962
		},
		{
			"buffer":0,
			"byteLength":2256,
			"byteOffset":26252,
			"target":34962
		},
		{
			"buffer":0,
			"byteLength":3384,
			"byteOffset":28508,
			"target":34962
		},
		{
			"buffer":0,
			"byteLength":936,
			"byteOffset":31892,
			"target":34963
		},
		{
			"buffer":0,
			"byteLength":2472,
			"byteOffset":32828,
			"target":34962
		},
		{
			"buffer":0,
			"byteLength":1648,
			"byteOffset":35300,
			"target":34962
		},
		{
			"buffer":0,
			"byteLength":2472,
			"byteOffset":36948,
			"target":34962
		},
		{
			"buffer":0,
			"byteLength":648,
			"byteOffset":39420,
			"target":34963
		},
		{
			"buffer":0,
			"byteLength":1512,
			"byteOffset":40068,
			"target":34962
		},
		{
			"buffer":0,
			"byteLength":1008,
			"byteOffset":41580,
			"target":34962
		},
		{
			"buffer":0,
			"byteLength":1512,
			"byteOffset":42588,
			"target":34962
		},
		{
			"buffer":0,
			"byteLength":408,
			"byteOffset":44100,
			"target":34963
		},
		{
			"buffer":0,
			"byteLength":3576,
			"byteOffset":44508,
			"target":34962
		},
		{
			"buffer":0,
			"byteLength":2384,
			"byteOffset":48084,
			"target":34962
		},
		{
			"buffer":0,
			"byteLength":3576,
			"byteOffset":50468,
			"target":34962
		},
		{
			"buffer":0,
			"byteLength":936,
			"byteOffset":54044,
			"target":34963
		},
		{
			"buffer":0,
			"byteLength":1344,
			"byteOffset":54980,
			"target":34962
		},
		{
			"buffer":0,
			"byteLength":896,
			"byteOffset":56324,
			"target":34962
		},
		{
			"buffer":0,
			"byteLength":1344,
			"byteOffset":57220,
			"target":34962
		},
		{
			"buffer":0,
			"byteLength":408,
			"byteOffset":58564,
			"target":34963
		}
	],
	"samplers":[
		{
			"magFilter":9728,
			"minFilter":9984
		}
	],
	"buffers":[
		{
			"byteLength":58972,
			"uri":"data:application/octet-stream;base64,"
		}
	]
}
